<svg xmlns="http://www.w3.org/2000/svg" viewBox="0 0 90 89.99"><title>home</title><g id="Calque_2" data-name="Calque 2"><g id="Calque_1-2" data-name="Calque 1"><path d="M85.46,70.88a6.75,6.75,0,0,0-4.46-6V31.49l2.1,1.28a4.5,4.5,0,1,0,4.77-7.63L47.4.69a4.51,4.51,0,0,0-4.77,0L2.1,25.15a4.49,4.49,0,0,0,1.4,8.19,4.29,4.29,0,0,0,1,.12,4.44,4.44,0,0,0,2.36-.68L9,31.49V64.9a6.75,6.75,0,0,0-4.46,6A6.76,6.76,0,0,0,0,77.24a6.67,6.67,0,0,0,1.49,4.17A3,3,0,0,0,0,84v3a3,3,0,0,0,3,3H87a3,3,0,0,0,3-3V84a3,3,0,0,0-1.49-2.58A6.67,6.67,0,0,0,90,77.24,6.76,6.76,0,0,0,85.46,70.88Zm-3,.36a2.28,2.28,0,0,1,0,.45v.08s0,0,0,.07a1.77,1.77,0,0,0,0,.23,1,1,0,0,0,.13.56,1.15,1.15,0,0,0,.12.25,1.34,1.34,0,0,0,.2.21,1.9,1.9,0,0,0,.21.19l.27.12a.88.88,0,0,0,.2.09l.11,0h0A3.75,3.75,0,0,1,83.25,81H66.75A3.75,3.75,0,0,1,63,77.24a3.71,3.71,0,0,1,1.12-2.66,3.57,3.57,0,0,1,1.67-1h0a1.38,1.38,0,0,0,.41-.18l.05,0a1.61,1.61,0,0,0,.23-.22,1.12,1.12,0,0,0,.18-.2c0-.09.08-.17.12-.26s.07-.18.09-.27a3.88,3.88,0,0,0,0-.59v-.07a1.24,1.24,0,0,0-.1-.2,1.31,1.31,0,0,0-.08-.21,4.49,4.49,0,1,1,8-4A4.21,4.21,0,0,1,75,69a4.44,4.44,0,0,1-.61,2.25,1.49,1.49,0,0,0,0,1.5,1.51,1.51,0,0,0,1.31.76,1.5,1.5,0,0,0,1.3-.76A7.48,7.48,0,0,0,78,69a7.1,7.1,0,0,0-.14-1.38,3.35,3.35,0,0,1,.89-.12A3.75,3.75,0,0,1,82.5,71.24ZM63,64.49v-6h3V63a7.45,7.45,0,0,0-2.24,2.74A1.48,1.48,0,0,1,63,64.49Zm7.5-15A1.5,1.5,0,0,1,72,51v4.5H69v-6Zm0,12a7.56,7.56,0,0,0-1.5.15V58.49h3v3.17A7.58,7.58,0,0,0,70.5,61.49Zm-4.5-6H63V51a1.5,1.5,0,0,1,1.5-1.5H66ZM5.3,30.23A1.5,1.5,0,0,1,3.68,27.7L44.2,3.23A1.52,1.52,0,0,1,45,3a1.54,1.54,0,0,1,.83.24L86.3,27.69A1.48,1.48,0,0,1,87,29a1.46,1.46,0,0,1-.81,1.26,1.49,1.49,0,0,1-1.5-.07L45.78,6.68a1.51,1.51,0,0,0-1.56,0ZM45,9.71l33,20V64.54a7.17,7.17,0,0,0-1.3.28A7.31,7.31,0,0,0,75,63V51a4.51,4.51,0,0,0-4.5-4.5h-6A4.5,4.5,0,0,0,60,51v13.5a4.48,4.48,0,0,0,3,4.23c0,.09,0,.18,0,.27a7.23,7.23,0,0,0,.41,2.39A6.5,6.5,0,0,0,62,72.46,6.73,6.73,0,0,0,61.14,81H57V49.49a6,6,0,0,0-6-6H39a6,6,0,0,0-6,6V81H28.86A6.78,6.78,0,0,0,30,77.24a6.61,6.61,0,0,0-2-4.75,6.44,6.44,0,0,0-1.44-1.11A7.23,7.23,0,0,0,27,69a2.45,2.45,0,0,0,0-.27,4.5,4.5,0,0,0,3-4.23V51a4.5,4.5,0,0,0-4.5-4.5h-6A4.51,4.51,0,0,0,15,51V63a7.66,7.66,0,0,0-1.7,1.8,6.41,6.41,0,0,0-1.3-.28V29.68ZM54,81H36V49.49a3,3,0,0,1,3-3H51a3,3,0,0,1,3,3ZM25.5,49.49A1.5,1.5,0,0,1,27,51v4.5H24v-6Zm.75,16.27A7.33,7.33,0,0,0,24,63V58.49h3v6A1.49,1.49,0,0,1,26.25,65.76ZM21,55.49H18V51a1.5,1.5,0,0,1,1.5-1.5H21Zm-3,3h3v3.18a7.58,7.58,0,0,0-3,0Zm-11.73,15h0l.11,0,.2-.09a1.13,1.13,0,0,0,.27-.13,1.3,1.3,0,0,0,.22-.19,1.8,1.8,0,0,0,.19-.2,2.1,2.1,0,0,0,.13-.26,1.09,1.09,0,0,0,.12-.56,1.62,1.62,0,0,0,0-.22s0,0,0-.08,0-.05,0-.08a2.12,2.12,0,0,1,0-.44,3.75,3.75,0,0,1,3.75-3.75,3.35,3.35,0,0,1,.89.12A7.1,7.1,0,0,0,12,69a7.48,7.48,0,0,0,1,3.75,1.5,1.5,0,1,0,2.6-1.5A4.44,4.44,0,0,1,15,69a4.21,4.21,0,0,1,.34-1.68,4.49,4.49,0,0,1,8.52.59A3.63,3.63,0,0,1,24,69a4.36,4.36,0,0,1-.68,2.38.9.9,0,0,0-.08.21,1,1,0,0,0-.1.21v.07a2.81,2.81,0,0,0,0,.58,1.43,1.43,0,0,0,.09.27,1.23,1.23,0,0,0,.12.26,1.12,1.12,0,0,0,.17.2,1.58,1.58,0,0,0,.23.22s0,0,.05,0a1.65,1.65,0,0,0,.41.18h0a3.56,3.56,0,0,1,1.7,1A3.67,3.67,0,0,1,27,77.24,3.75,3.75,0,0,1,23.25,81H6.75a3.75,3.75,0,0,1-.48-7.47ZM3,84H27v3H3Zm27,3V84H60v3Zm33,0V84H87v3Z"/><path d="M46.5,66a1.5,1.5,0,1,1-1.5-1.5A1.5,1.5,0,0,1,46.5,66Z"/><path d="M39,40.49H51a3,3,0,0,0,3-3v-12a9,9,0,0,0-18,0v12A3,3,0,0,0,39,40.49Zm0-9h4.5v6H39Zm7.5,6v-6H51v6Zm4.5-12v3H46.5V19.71A6,6,0,0,1,51,25.49Zm-7.5-5.78v8.78H39v-3A6,6,0,0,1,43.5,19.71Z"/></g></g></svg>