<?xml version="1.0" encoding="iso-8859-1"?>
<!-- Generator: Adobe Illustrator 19.0.0, SVG Export Plug-In . SVG Version: 6.00 Build 0)  -->
<svg version="1.1" id="Capa_1" xmlns="http://www.w3.org/2000/svg" xmlns:xlink="http://www.w3.org/1999/xlink" x="0px" y="0px"
	 viewBox="0 0 512 512" style="enable-background:new 0 0 512 512;" xml:space="preserve">
<g>
	<g>
		<g>
			<path d="M509.501,386.499c-1.6-1.6-3.771-2.499-6.035-2.499h-34.133V85.333c-0.015-14.132-11.468-25.585-25.6-25.6H68.267
				c-14.132,0.015-25.585,11.468-25.6,25.6V384H8.533c-2.263-0.001-4.434,0.898-6.035,2.499c-1.6,1.6-2.499,3.771-2.499,6.035V409.6
				c0.028,23.553,19.114,42.639,42.667,42.667h426.667c23.553-0.028,42.639-19.114,42.667-42.667v-17.067
				C512.001,390.27,511.102,388.099,509.501,386.499z M59.733,85.333c0.005-4.711,3.822-8.529,8.533-8.533h375.467
				c4.711,0.005,8.529,3.822,8.533,8.533V384H331.525c-7.261-0.14-13.796,4.381-16.225,11.225c-0.436,1.289-1.183,2.451-2.175,3.383
				c-1.559,1.591-3.698,2.479-5.925,2.458H204.8c-3.681-0.008-6.945-2.371-8.1-5.867c-2.433-6.833-8.964-11.344-16.217-11.2H59.733
				V85.333z M494.933,409.6c-0.015,14.132-11.468,25.585-25.6,25.6H42.667c-14.132-0.015-25.585-11.468-25.6-25.6v-8.554
				l33.597-0.087c0.187,0.012,0.346,0.108,0.536,0.108c0.195,0,0.358-0.098,0.55-0.111l128.767-0.335
				c3.481,10.456,13.263,17.51,24.283,17.513h102.4c6.759,0.049,13.25-2.642,17.992-7.458c2.761-2.724,4.919-5.997,6.333-9.609
				h163.408V409.6z"/>
			<path d="M435.2,349.867V110.933c-0.011-9.421-7.645-17.056-17.067-17.067h-17.067c-4.713,0-8.533,3.82-8.533,8.533
				s3.821,8.533,8.533,8.533h17.067v238.933H93.867V110.933h17.067c4.713,0,8.533-3.821,8.533-8.533s-3.82-8.533-8.533-8.533H93.867
				c-9.421,0.011-17.056,7.646-17.067,17.067v238.933c0.011,9.421,7.646,17.056,17.067,17.067h324.267
				C427.555,366.923,435.189,359.288,435.2,349.867z"/>
			<path d="M140.348,126.606c2.552,1.681,5.807,1.869,8.536,0.494h0l4.717-2.358v37.392c0,4.713,3.82,8.533,8.533,8.533
				s8.533-3.821,8.533-8.533v-51.2c-0.001-2.957-1.533-5.703-4.048-7.257s-5.656-1.697-8.302-0.376l-17.067,8.533
				c-2.737,1.358-4.54,4.075-4.726,7.125C136.338,122.008,137.796,124.925,140.348,126.606z"/>
			<path d="M208.614,211.939c2.552,1.681,5.807,1.869,8.536,0.494l4.717-2.358v37.392c0,4.713,3.82,8.533,8.533,8.533
				s8.533-3.82,8.533-8.533v-51.2c-0.001-2.957-1.533-5.703-4.048-7.257s-5.656-1.697-8.302-0.376l-17.067,8.533
				c-2.737,1.358-4.54,4.075-4.726,7.125C204.604,207.342,206.063,210.258,208.614,211.939z"/>
			<path d="M345.148,211.939c2.552,1.681,5.807,1.869,8.536,0.494h0l4.717-2.358v37.392c0,4.713,3.82,8.533,8.533,8.533
				s8.533-3.82,8.533-8.533v-51.2c-0.001-2.957-1.533-5.703-4.048-7.257c-2.515-1.555-5.656-1.697-8.302-0.376l-17.067,8.533
				c-2.737,1.358-4.54,4.075-4.726,7.125C341.138,207.342,342.596,210.258,345.148,211.939z"/>
			<path d="M345.148,126.606c2.552,1.681,5.807,1.869,8.536,0.494h0l4.717-2.358v37.392c0,4.713,3.82,8.533,8.533,8.533
				s8.533-3.821,8.533-8.533v-51.2c-0.001-2.957-1.533-5.703-4.048-7.257c-2.515-1.555-5.656-1.697-8.302-0.376l-17.067,8.533
				c-2.737,1.358-4.54,4.075-4.726,7.125C341.138,122.008,342.596,124.925,345.148,126.606z"/>
			<path d="M221.867,170.667h17.067c9.421-0.011,17.056-7.646,17.067-17.067v-34.133c-0.011-9.421-7.645-17.056-17.067-17.067
				h-17.067c-9.421,0.011-17.056,7.646-17.067,17.067V153.6C204.811,163.021,212.445,170.656,221.867,170.667z M221.867,119.467
				h17.067l0.009,34.133h-17.075V119.467z"/>
			<path d="M290.133,170.667H307.2c9.421-0.011,17.056-7.646,17.067-17.067v-34.133c-0.011-9.421-7.645-17.056-17.067-17.067
				h-17.067c-9.421,0.011-17.056,7.646-17.067,17.067V153.6C273.077,163.021,280.712,170.656,290.133,170.667z M290.133,119.467
				H307.2l0.009,34.133h-17.075V119.467z"/>
			<path d="M153.6,187.733c-9.421,0.011-17.056,7.645-17.067,17.067v34.133c0.011,9.421,7.646,17.056,17.067,17.067h17.067
				c9.421-0.011,17.056-7.645,17.067-17.067V204.8c-0.011-9.421-7.645-17.056-17.067-17.067H153.6z M153.6,238.933V204.8h17.067
				l0.009,34.133H153.6z"/>
			<path d="M290.133,256H307.2c9.421-0.011,17.056-7.645,17.067-17.067V204.8c-0.011-9.421-7.645-17.056-17.067-17.067h-17.067
				c-9.421,0.011-17.056,7.645-17.067,17.067v34.133C273.077,248.355,280.712,255.989,290.133,256z M290.133,204.8H307.2
				l0.009,34.133h-17.075V204.8z"/>
			<path d="M208.614,288.739c2.552,1.681,5.807,1.869,8.536,0.494l4.717-2.358v37.392c-0.001,2.263,0.898,4.434,2.499,6.035
				c1.6,1.6,3.771,2.499,6.035,2.499c2.263,0.001,4.434-0.898,6.035-2.499c1.6-1.6,2.499-3.771,2.499-6.035v-51.2
				c-0.001-2.957-1.533-5.703-4.048-7.257c-2.515-1.555-5.656-1.697-8.302-0.376l-17.067,8.533c-2.737,1.358-4.54,4.075-4.726,7.125
				C204.604,284.142,206.063,287.058,208.614,288.739z"/>
			<path d="M345.148,288.739c2.552,1.681,5.807,1.869,8.536,0.494h0l4.717-2.358v37.392c0,4.713,3.82,8.533,8.533,8.533
				s8.533-3.82,8.533-8.533v-51.2c-0.001-2.957-1.533-5.703-4.048-7.257c-2.515-1.555-5.656-1.697-8.302-0.376l-17.067,8.533
				c-2.737,1.358-4.54,4.075-4.726,7.125C341.138,284.142,342.596,287.058,345.148,288.739z"/>
			<path d="M170.667,264.533H153.6c-9.421,0.011-17.056,7.646-17.067,17.067v34.133c0.011,9.421,7.646,17.056,17.067,17.067h17.067
				c9.421-0.011,17.056-7.645,17.067-17.067V281.6C187.723,272.179,180.088,264.544,170.667,264.533z M153.6,315.733V281.6h17.067
				l0.009,34.133H153.6z"/>
			<path d="M290.133,332.8H307.2c9.421-0.011,17.056-7.645,17.067-17.067V281.6c-0.011-9.421-7.645-17.056-17.067-17.067h-17.067
				c-9.421,0.011-17.056,7.646-17.067,17.067v34.133C273.077,325.155,280.712,332.789,290.133,332.8z M290.133,281.6H307.2
				l0.009,34.133h-17.075V281.6z"/>
		</g>
	</g>
</g>
<g>
</g>
<g>
</g>
<g>
</g>
<g>
</g>
<g>
</g>
<g>
</g>
<g>
</g>
<g>
</g>
<g>
</g>
<g>
</g>
<g>
</g>
<g>
</g>
<g>
</g>
<g>
</g>
<g>
</g>
</svg>
