<svg xmlns="http://www.w3.org/2000/svg" viewBox="0 0 72.75 74.05"><title>others</title><g id="Calque_2" data-name="Calque 2"><g id="Calque_1-2" data-name="Calque 1"><g id="surface1"><path d="M18.23,38.67h2.92v1.46H18.23Z"/><path d="M43.13,36.49l-5-.71a26.79,26.79,0,0,0-2.8-1.49A24.76,24.76,0,0,0,25.21,32.1h-.86a25,25,0,0,0-11.84,3L10,36.49a17.21,17.21,0,0,0-8.34,2.26A3.32,3.32,0,0,0,0,41.63V46a.73.73,0,0,0,.73.73H3.18a4.36,4.36,0,0,0,8.23,0H30.89a4.36,4.36,0,0,0,8.23,0h.26a.86.86,0,0,0,.27,0l2.36-1a2.74,2.74,0,0,0,1.74-2.57V37.21A.72.72,0,0,0,43.13,36.49Zm-33,9.32a2.91,2.91,0,1,1,.06-.58A2.78,2.78,0,0,1,10.15,45.81Zm13.18-.58H11.67a4.38,4.38,0,0,0-8.75,0H1.46v-3.6A1.88,1.88,0,0,1,2.4,40a15.73,15.73,0,0,1,7.81-2.07H23.33Zm0-8.75H13.07l.14-.08a23.32,23.32,0,0,1,10.12-2.8Zm1.46-2.92h.42a23.17,23.17,0,0,1,8.58,1.65l-1.28,1.27H24.79ZM37.86,45.81a2.91,2.91,0,1,1,.06-.58A2.78,2.78,0,0,1,37.86,45.81Zm4.43-7.14H40.11v1.46h2.18v3a1.28,1.28,0,0,1-.82,1.21l-2.09.84a1.5,1.5,0,0,0,0-.2,1.55,1.55,0,0,0,0-.21l0-.22a1.43,1.43,0,0,0,0-.22,2.09,2.09,0,0,0-.05-.21l-.06-.2c0-.07-.05-.13-.07-.2s-.05-.14-.07-.2l-.09-.19a1.74,1.74,0,0,0-.1-.19l-.1-.18-.12-.18-.12-.16-.13-.18a1.85,1.85,0,0,0-.14-.14l-.14-.16L37.94,42l-.16-.14-.17-.13-.17-.12-.19-.12-.17-.1-.2-.1-.18-.08-.22-.08-.18-.07a2.27,2.27,0,0,0-.25-.06l-.17-.05-.27,0-.16,0a3.29,3.29,0,0,0-.45,0,4.38,4.38,0,0,0-4.37,4.38H24.79V37.94h8a.73.73,0,0,0,.52-.22l1.89-1.89a22.52,22.52,0,0,1,2.31,1.27.72.72,0,0,0,.29.1l4.47.64Z"/></g><path d="M58.88,25.77l-1.12,1.05a3.75,3.75,0,0,1-2.61,1h-.49A3.6,3.6,0,0,1,51,24.36a3.37,3.37,0,0,1,1.08-2.45l9.87-9.29A5.84,5.84,0,0,0,63.8,8.35a5.5,5.5,0,0,0-.08-.91l1.6-1.66a3.23,3.23,0,0,0-.11-4.64L65,1A3.75,3.75,0,0,0,60.11.87L58.34,2.39a7.44,7.44,0,0,0-5.75,1.92L43.35,13a1.62,1.62,0,0,1-1.13.44,1.55,1.55,0,0,1-1.6-1.5V9.74h-1V12a2.52,2.52,0,0,0,2.59,2.43,2.66,2.66,0,0,0,1.83-.71L53.29,5a6.57,6.57,0,0,1,4-1.69,5.57,5.57,0,0,0-1.9,4L36,26.87a1.07,1.07,0,0,0-.32.76,1.16,1.16,0,0,0,1.2,1.13,1.2,1.2,0,0,0,.82-.3L58.56,10.2a6.24,6.24,0,0,0,4.25-1.82A5,5,0,0,1,61.22,12l-9.87,9.28A4.25,4.25,0,0,0,50,24.36a4.54,4.54,0,0,0,4.67,4.4h.49a4.8,4.8,0,0,0,3.31-1.28l1.12-1.06a2.58,2.58,0,0,1,3.49,0l2.34,2.21.7-.66-2.35-2.2a3.6,3.6,0,0,0-4.88,0ZM58.37,9.28h-.2L37,27.78a.22.22,0,0,1-.36-.15.19.19,0,0,1,0-.13L56.39,7.61V7.42a4.65,4.65,0,0,1,1.67-3.53l2.71-2.33a2.72,2.72,0,0,1,3.57.08l.17.16a2.32,2.32,0,0,1,.08,3.36l-1.16,1.2A5.14,5.14,0,0,0,63,5.44l.87-.91a1.44,1.44,0,0,0-.06-2.07l-.17-.16a1.71,1.71,0,0,0-2.2,0L59,4.3a2.87,2.87,0,0,0-1.14,2.28,1.26,1.26,0,0,0,.39,1h0a1.35,1.35,0,0,0,.93.36h.07a3.21,3.21,0,0,0,2.43-1.08l.6-.63a5.31,5.31,0,0,1,.37,1l-.54.55a5.21,5.21,0,0,1-3.75,1.57Zm2.21-5.06a6.32,6.32,0,0,1,.64.52,5,5,0,0,1,.54.6L61,6.19A2.2,2.2,0,0,1,59.21,7,.39.39,0,0,1,59,6.87a.3.3,0,0,1-.09-.24A2,2,0,0,1,59.68,5Zm1.34-.14a5.58,5.58,0,0,0-.6-.49l.78-.66A.66.66,0,0,1,63,3l.16.16a.55.55,0,0,1,.18.41.53.53,0,0,1-.16.39l-.69.73A6.77,6.77,0,0,0,61.92,4.08Z"/><path d="M42.86,55a.53.53,0,0,0-.66-.35,7.16,7.16,0,0,0-3.12,1.89,8.28,8.28,0,0,0-2.3,6.66,11.79,11.79,0,0,0,3.17,7,.54.54,0,0,0,.39.16.5.5,0,0,0,.36-.14.53.53,0,0,0,0-.74,10.66,10.66,0,0,1-2.89-6.34,7.23,7.23,0,0,1,2-5.83,6.06,6.06,0,0,1,2.69-1.63A.53.53,0,0,0,42.86,55Z"/><path d="M50,66l-5.28-5.28a.54.54,0,0,0-.75,0l-1.8,1.8a.54.54,0,0,0-.15.38.51.51,0,0,0,.15.37l5.28,5.28a.55.55,0,0,0,.38.15.53.53,0,0,0,.37-.15l1.8-1.8a.54.54,0,0,0,.15-.38A.51.51,0,0,0,50,66Zm-2.17,1.43-4.54-4.53,1.06-1.06,4.53,4.53Z"/><path d="M61.2,52.74Z"/><path d="M72.6,43.6l-.91-.91.34-.41A.86.86,0,0,0,72,41.12l-2.31-2.31a.86.86,0,0,0-1.17-.06l-.4.34-.89-.89a.53.53,0,0,0-.75.75l.82.82-.62.52-.77-.77a.53.53,0,0,0-.75.75l.7.7-.63.52-.64-.65a.53.53,0,0,0-.75.75l.58.57-.28.24a.83.83,0,0,0-.31.62.88.88,0,0,0,.22.62l-5.95,5.94C55,47.25,51.84,47,49.86,49a6.09,6.09,0,0,0-1.15,1.58,6.86,6.86,0,0,1-1.29,1.73,6.56,6.56,0,0,1-3,1.8.53.53,0,0,0,.15,1l.15,0a7.73,7.73,0,0,0,3.45-2.06,8.15,8.15,0,0,0,1.46-2,5.1,5.1,0,0,1,1-1.35,3.56,3.56,0,0,1,3.1-1,8,8,0,0,1,3.62,1.59l-5.58,5.58a4.47,4.47,0,0,0-.82-.08,4,4,0,1,0,4,4,3.59,3.59,0,0,0-.09-.81l5.56-5.56h0c1.78,2.56,2,5.26.61,6.69a5.43,5.43,0,0,1-1.32,1,8.61,8.61,0,0,0-4.34,6A6.91,6.91,0,0,1,53.48,71a7.22,7.22,0,0,1-5.16,2,10.18,10.18,0,0,1-6-2.09.53.53,0,0,0-.63.85,11.23,11.23,0,0,0,6.62,2.29,8.23,8.23,0,0,0,5.9-2.34,7.86,7.86,0,0,0,2.2-4.28,7.28,7.28,0,0,1,2.08-4.05,7.09,7.09,0,0,1,1.76-1.31,7.26,7.26,0,0,0,1.54-1.13c1.83-1.84,1.57-5.16-.6-8.2l4.13-4.13a.51.51,0,0,0,0-.74.53.53,0,0,0-.75,0l-.19.19L62.74,46.4l2-2L66.41,46l-.23.24a.52.52,0,0,0,.74.74l.24-.24a.87.87,0,0,0,.58.22h0a.88.88,0,0,0,.63-.32l.22-.27.58.58a.55.55,0,0,0,.38.15A.53.53,0,0,0,70,47a.54.54,0,0,0,0-.75l-.65-.65.51-.63.71.71a.55.55,0,0,0,.38.15.53.53,0,0,0,.37-.15.54.54,0,0,0,0-.75l-.78-.78.51-.63.84.84a.55.55,0,0,0,.38.15.53.53,0,0,0,.37-.15A.54.54,0,0,0,72.6,43.6ZM53,62a3,3,0,0,1-2.12.88,3,3,0,0,1,0-6,2.81,2.81,0,0,1,.82.12h0a3,3,0,0,1,1.27.76A3.07,3.07,0,0,1,53.79,59v0a3.18,3.18,0,0,1,.11.82A3,3,0,0,1,53,62Zm1.45-4a4.28,4.28,0,0,0-.71-1,3.83,3.83,0,0,0-1-.7l2.8-2.8,1.65,1.66ZM58,54.42l-1.66-1.65,1.38-1.38,1.65,1.66Zm2.12-2.12-1.66-1.65,1.38-1.38,1.65,1.66Zm3.5-3.5-1.38,1.38-1.65-1.65L62,47.15Zm4.07-2.95-2.78-2.77L69,39.67l2.06,2.07Z"/><path d="M60.44,53.5Z"/></g></g></svg>