<?xml version="1.0" encoding="iso-8859-1"?>
<!-- Generator: Adobe Illustrator 19.0.0, SVG Export Plug-In . SVG Version: 6.00 Build 0)  -->
<svg version="1.1" id="Capa_1" xmlns="http://www.w3.org/2000/svg" xmlns:xlink="http://www.w3.org/1999/xlink" x="0px" y="0px"
	 viewBox="0 0 496 496" style="enable-background:new 0 0 496 496;" xml:space="preserve">
<g>
	<g>
		<rect x="272" y="432" width="16" height="16"/>
	</g>
</g>
<g>
	<g>
		<rect x="80" y="432" width="176" height="16"/>
	</g>
</g>
<g>
	<g>
		<rect x="48" y="432" width="16" height="16"/>
	</g>
</g>
<g>
	<g>
		<path d="M438.616,0l-224,80H64v48h37.248l-19.2,64H24c-13.232,0-24,10.768-24,24v128c0,13.232,10.768,24,24,24h43.056l-8,16H56
			c-30.88,0-56,25.12-56,56s25.12,56,56,56h224c30.88,0,56-25.12,56-56s-25.12-56-56-56h-3.056l-8-16H280c13.232,0,24-10.768,24-24
			V243.632l61.656-53.976L432,123.312V152l22.784,197.904L416,388.688v53.768l-64,24V496h74.128l61.552-35.168L496,344V0H438.616z
			 M416,480h-48v-2.456l48-18V480z M432,19.352v15.104L310.544,80h-48.352L432,19.352z M272,400v16h16v-15.192
			c5.096,1.04,9.832,3.072,14.024,5.856l-10.712,10.712l11.312,11.312l10.712-10.712c2.784,4.192,4.816,8.928,5.856,14.024H304v16
			h15.192c-1.04,5.096-3.072,9.832-5.856,14.024l-10.712-10.712l-11.312,11.312l10.712,10.712
			c-4.192,2.784-8.928,4.816-14.024,5.856V464h-16v16h-16v-16h-16v16h-16v-16h-16v16h-16v-16h-16v16h-16v-16h-16v16h-16v-16h-16v16
			H96v-16H80v16H64v-16H48v15.192c-5.096-1.04-9.832-3.072-14.024-5.856l10.712-10.712l-11.312-11.312l-10.712,10.712
			c-2.784-4.192-4.816-8.928-5.856-14.024H32v-16H16.808c1.04-5.096,3.072-9.832,5.856-14.024l10.712,10.712l11.312-11.312
			l-10.712-10.712c4.192-2.784,8.928-4.816,14.024-5.856V416h16v-16h16v16h16v-16h16v16h16v-16h16v16h16v-16h16v16h16v-16h16v16h16
			v-16h16v16h16v-16H272z M76.944,384l8-16h166.112l8,16H76.944z M288,344c0,4.408-3.592,8-8,8h-19.056H75.056H24
			c-4.408,0-8-3.592-8-8v-24h272V344z M256,240v64H120v-64H256z M122.912,224l17.336-58.296c1.016-3.408,4.096-5.704,7.656-5.704
			H248c4.408,0,8,3.592,8,8v56H122.912z M288,304h-16V168c0-13.232-10.768-24-24-24H147.904c-10.68,0-19.92,6.872-22.992,17.104
			l-20.592,69.304L104.032,304H16v-24h32v-16H16v-16h32v-16H16v-16c0-4.408,3.592-8,8-8h69.952l24-80H288V304z M80,112V96h224v16H80
			z M354.728,177.984L304,222.368v-48.952l34.976-13.992l80.856-58.528c1.544,2.4,3.512,4.472,5.784,6.184L354.728,177.984z
			 M416.448,83.6l-84.344,61.336L304,156.184V128h16V93.544l112-42v13.928C424.048,68.304,418.024,75.144,416.448,83.6z M440,96
			c-4.408,0-8-3.592-8-8s3.592-8,8-8c4.408,0,8,3.592,8,8S444.408,96,440,96z M472.32,451.168L432,474.216v-78.904L467.312,360
			h11.52L472.32,451.168z M479.976,344h-9.768L448,151.536v-41.008c9.288-3.312,16-12.112,16-22.528s-6.712-19.216-16-22.528V16h32
			l0.016,327.432L479.976,344z"/>
	</g>
</g>
<g>
	<g>
		<rect x="208" y="256" width="32" height="16"/>
	</g>
</g>
<g>
</g>
<g>
</g>
<g>
</g>
<g>
</g>
<g>
</g>
<g>
</g>
<g>
</g>
<g>
</g>
<g>
</g>
<g>
</g>
<g>
</g>
<g>
</g>
<g>
</g>
<g>
</g>
<g>
</g>
</svg>
