<svg xmlns="http://www.w3.org/2000/svg" viewBox="0 0 637 369.88"><defs><style>.cls-1{fill:#ab905f;}.cls-2{fill:#f4c257;}</style></defs><title>ac</title><g id="Calque_2" data-name="Calque 2"><g id="Calque_1-2" data-name="Calque 1"><path class="cls-1" d="M65.11,361.45q-2.84-2.29-6.22-16.17a204.93,204.93,0,0,1-4.74-26.9q-4-30.27-7-35.07a3.7,3.7,0,0,0-3.42-2.05c-1.53,0-3.68,1-6.45,3a36.52,36.52,0,0,0-7,6.4A133.73,133.73,0,0,0,11.2,321.81H6.06c-1.45,0-2.81.93-4.11,2.8S0,327.82,0,328.66a1.11,1.11,0,0,0,1.26,1.26H7.89Q3.56,342.6,3.54,350.53c0,5.3.89,9.26,2.64,11.88a8.8,8.8,0,0,0,7.88,3.95,15.36,15.36,0,0,0,6.62-1.95,9.29,9.29,0,0,0,4-3.88,13.26,13.26,0,0,0,1.59-6.74c0-.83-.37-1.26-1.14-1.26l-2.5.46a5,5,0,0,1-4.35-2.29,10.16,10.16,0,0,1-1.89-4.28,51.92,51.92,0,0,1-.28-6.33,44.81,44.81,0,0,1,1.37-10.17l23.88.12.8.57c.3,1.82.61,4.53.91,8.1l.69,5.37q2,16.79,4.11,21.25a3.3,3.3,0,0,0,1.72,1.31,9.65,9.65,0,0,0,3.93.63,28.08,28.08,0,0,0,7.42-1.48c3.25-1,4.86-2.05,4.86-3.2A1.31,1.31,0,0,0,65.11,361.45ZM41,321.69a6.93,6.93,0,0,1-2.68.17q-2.43-.06-19-.05h-.12a81.45,81.45,0,0,1,13.56-23.56c1.19-1.59,2.18-2.38,3-2.38s1.58,1.76,2.38,5.29,1.86,10.18,3.22,19.93A1.52,1.52,0,0,1,41,321.69Z"/><path class="cls-1" d="M106.91,325.5q0-8.69-6.78-11.43a18.18,18.18,0,0,0-6.66-1.31A14.15,14.15,0,0,0,84.19,316a5,5,0,0,1-1.61,1.07c-.2,0-.33-.16-.42-.47q-2.14-4.41-8.57-4.41c-1.66,0-2.49.47-2.49,1.43.79,4,1.19,11.51,1.19,22.61a176.26,176.26,0,0,1-1.67,27L70,366.9c0,1,1.23,1.56,3.69,1.56a16.31,16.31,0,0,0,7.39-1.86c2.46-1.23,3.69-2.82,3.69-4.81,0-.24-.08-1-.25-2.2s-.32-3.49-.47-6.79-.24-7.8-.24-13.56a74.2,74.2,0,0,1,.71-12.32l.48-1.66A6.74,6.74,0,0,1,87,322a5.32,5.32,0,0,1,3.86-1.6,4.22,4.22,0,0,1,3.47,1.48,5.57,5.57,0,0,1,1.19,3.52,17,17,0,0,1-.84,4.76,15.74,15.74,0,0,0-.84,4.28q0,6.54,8.69,6.55c2.86,0,4.29-.76,4.29-2.26l-.49-4.16Z"/><path class="cls-1" d="M153.16,365q-3.43-3.21-3.44-19l.23-15.23c0-3.49-.06-6.16-.18-8a8.56,8.56,0,0,0-2.5-5.3,11.73,11.73,0,0,0-5.83-3.38,49.76,49.76,0,0,0-5.53-1.14,51.87,51.87,0,0,0-5.72-.24,27.73,27.73,0,0,0-7.66,1.14,18.63,18.63,0,0,0-5.9,2.55,11.51,11.51,0,0,0-3.15,3.75,9,9,0,0,0-1.24,4.23,5.94,5.94,0,0,0,2.08,4.76,8.37,8.37,0,0,0,5.65,1.78l1.3-.12c2.7-.24,4.12-1,4.28-2.38l-.71-2.85q0-3.48,3.79-5.38a6.7,6.7,0,0,1,2.78-.68q6.87-.24,6.88,6.29a18.73,18.73,0,0,1-.36,4.41c-.31,1.19-4.09,2.5-11.31,3.92a30.11,30.11,0,0,0-13.44,7.14c-3.49,3.34-5.23,7.77-5.23,13.33a14.83,14.83,0,0,0,3,8.8,11.33,11.33,0,0,0,4.22,3.22,15.73,15.73,0,0,0,7,1.42,13.85,13.85,0,0,0,7.73-2.43,7.42,7.42,0,0,0,3.69-6.43c0-2.66-.67-4.07-2-4.23-.16.08-.69.41-1.61,1a6.42,6.42,0,0,1-3.44.83,4.33,4.33,0,0,1-3.51-1.79,6.76,6.76,0,0,1-1.43-4.39q0-5,5-8.21a19.38,19.38,0,0,1,10.71-3.22c.63,0,.95.29.95.84l-.47,19c0,2.22,0,3.68.12,4.39q.47,4.53,8.14,4.53t7.68-1.78A1.48,1.48,0,0,0,153.16,365Z"/><path class="cls-1" d="M199.54,325.32a19.85,19.85,0,0,0-3.39-6.91,16.13,16.13,0,0,0-4.76-3.69,11.81,11.81,0,0,0-5.35-1.48,11.24,11.24,0,0,0-7.44,2.44,7.94,7.94,0,0,0-2.91,6.43c0,2.66.7,4,2.14,4l2.73-.71q5.48,0,7.14,7.85a33.15,33.15,0,0,1,1,7.49,36.76,36.76,0,0,1-2.38,13.46,12.32,12.32,0,0,1-3.94,5.35,9.93,9.93,0,0,1-6.24,2c-2.42,0-3.67-.56-3.75-1.67q-1.07-7.12-1.07-25.82l.6-28.56a195.53,195.53,0,0,0-.84-20.7c-.08-.95-1-1.42-2.85-1.42s-4.72.81-8.68,2.43-5.95,3-5.95,4.22c0,.41.27.76.82,1.09l1,.59a7.66,7.66,0,0,1,2.21,3.08,16.36,16.36,0,0,1,1.36,5.72l.23,1.67q.5,4.76.49,13.68l-.72,38.55a116.74,116.74,0,0,0,.35,11.78,2.31,2.31,0,0,0,1.79,1.67l1.19.23a42.71,42.71,0,0,0,8.45.84q14.75,0,22.55-9.05T201,336.33A36.66,36.66,0,0,0,199.54,325.32Z"/><path class="cls-1" d="M273.51,365q-3.45-3.21-3.45-19l.23-15.23c0-3.49-.06-6.16-.18-8a8.56,8.56,0,0,0-2.5-5.3,11.73,11.73,0,0,0-5.83-3.38,49.76,49.76,0,0,0-5.53-1.14,51.87,51.87,0,0,0-5.72-.24,27.73,27.73,0,0,0-7.66,1.14,18.63,18.63,0,0,0-5.9,2.55,11.51,11.51,0,0,0-3.15,3.75,9,9,0,0,0-1.24,4.23,5.94,5.94,0,0,0,2.08,4.76,8.37,8.37,0,0,0,5.65,1.78l1.3-.12c2.7-.24,4.12-1,4.28-2.38l-.71-2.85q0-3.48,3.79-5.38a6.7,6.7,0,0,1,2.78-.68q6.87-.24,6.88,6.29a18.73,18.73,0,0,1-.36,4.41c-.31,1.19-4.09,2.5-11.31,3.92a30.11,30.11,0,0,0-13.44,7.14c-3.49,3.34-5.23,7.77-5.23,13.33a14.83,14.83,0,0,0,3,8.8,11.33,11.33,0,0,0,4.22,3.22,15.79,15.79,0,0,0,7,1.42,13.85,13.85,0,0,0,7.73-2.43,7.42,7.42,0,0,0,3.69-6.43c0-2.66-.67-4.07-2-4.23-.16.08-.69.41-1.61,1a6.42,6.42,0,0,1-3.44.83,4.35,4.35,0,0,1-3.51-1.79,6.76,6.76,0,0,1-1.43-4.39q0-5,5-8.21a19.38,19.38,0,0,1,10.71-3.22c.64,0,.95.29.95.84l-.47,19c0,2.22,0,3.68.12,4.39q.46,4.53,8.14,4.53t7.68-1.78A1.5,1.5,0,0,0,273.51,365Z"/><path class="cls-1" d="M320.25,366.55Q317,362.28,317,352.62q0-4,.77-12.37c.52-5.56.78-9.83.78-12.84q0-7.52-4.52-11.43t-12.25-3.93q-7.76,0-11.43,3.81a1,1,0,0,1-.71.24.55.55,0,0,1-.6-.36c-1.19-2.77-3.61-4.17-7.26-4.17q-3.57,0-3.57,1.56,1.08,5.36,1.07,23.31a189.51,189.51,0,0,1-2.14,30.83c0,1,1.06,1.54,3.15,1.54a19.88,19.88,0,0,0,7.49-1.84q4.37-1.85,4.36-5.18l-.25-2.62q-.82-9.15-.83-21.54c0-5.4.08-9.06.24-11a8.78,8.78,0,0,1,2.2-5.16,7.23,7.23,0,0,1,5.78-2.27q7.85,0,7.85,9.51,0,4.65-2.27,13.58t-2.26,13.91q0,13.11,14.76,13.09c2.21,0,3.34-.51,3.34-1.54A1.87,1.87,0,0,0,320.25,366.55Z"/><path class="cls-1" d="M398.59,281.23c-4.12,0-6.87.28-8.21.84s-3.08,2-5.17,4.22S381,291,379,293.6s-4.32,5.6-6.72,8.93-4.1,5.64-5,6.91-1.61,2.25-2.09,3-.89,1.07-1.24,1.07-.54-.39-.54-1.19a230.77,230.77,0,0,1,1.54-27.49l.12-1.54c0-1.11-1.24-1.66-3.74-1.66a42.62,42.62,0,0,0-9.89,1.54c-4.08,1-6.12,2.11-6.12,3.22a5.64,5.64,0,0,0,1.31,2.13c1.11,1.52,1.9,6,2.38,13.56.31,5,.47,11.52.47,19.58s-.17,17-.53,26.78-.93,15.56-1.73,17.3a5.81,5.81,0,0,0-.35,1.79c0,.71,1.16,1.07,3.5,1.07a29.52,29.52,0,0,0,9.05-1.9q5.53-1.91,5.53-4.53c0-.16-.08-.71-.23-1.66a243.89,243.89,0,0,1-1.43-28.68l.24-1.54a13.28,13.28,0,0,1,1.78-4.53,36.19,36.19,0,0,1,4.52-6.42l1.31-.6c.08,0,.76.2,2,.6,1.66.4,3.52,2.21,5.58,5.47q3.57,5.61,3.57,18.09v4.76c.17,9,.44,14.63.84,17,.39,2.22,2,3.33,4.69,3.33a32.27,32.27,0,0,0,9.35-1.6c3.49-1.08,5.23-2.24,5.23-3.51a1.45,1.45,0,0,0-.59-1.19c-1.34-.88-2.52-3.53-3.51-8a91.76,91.76,0,0,1-1.85-10.22c-.23-2.38-.47-5.06-.7-8a28.83,28.83,0,0,0-2.68-9.52,25.35,25.35,0,0,0-4.83-7.51,22.81,22.81,0,0,0-5.65-4,20.55,20.55,0,0,0-4.34-1.84l-1.84-.36c-.44-.08-.66-.26-.66-.53A.89.89,0,0,1,376,311a153.4,153.4,0,0,1,14.46-16.19,103.24,103.24,0,0,1,9.46-8.43c1.5-1.05,2.69-1.79,3.56-2.28s1.31-.9,1.31-1.29C404.77,281.74,402.72,281.23,398.59,281.23Z"/><path class="cls-1" d="M422.35,366.31q-1.44-3-1.43-15.23c0-8.16.21-16,.64-23.38s.67-11.92.67-13.5c-.08-1-1.06-1.44-2.92-1.44s-4.82.68-8.86,2-6.07,2.73-6.07,4.17a.91.91,0,0,0,.72.94,5.45,5.45,0,0,1,1.66,1.79q2.25,3.57,2.26,13.45l-1.32,27.72c0,2.14.41,3.41,1.19,3.81a20.84,20.84,0,0,0,9.29,2.38c3,0,4.52-.53,4.52-1.55A2.39,2.39,0,0,0,422.35,366.31Zm-2.71-69.81.48-2a1.43,1.43,0,0,0,1.31-.9.17.17,0,0,0,0-.07,3.66,3.66,0,0,0-.77-1.07,3.46,3.46,0,0,0-1.11-.7,1.43,1.43,0,0,0-.44,2.36l-1,1.76-8.45-3.3.12-.17a.57.57,0,0,0-.13.1,3.37,3.37,0,0,0-.64.84q-1,1.77-1,5.88c0,3.55.51,5.31,1.54,5.31a.74.74,0,0,0,.6-.36c.63-1,2-1.55,4.16-1.55l2.85.12c1.83,0,3.1-.42,3.82-1.24a5.52,5.52,0,0,0,1-3.07c0-.31,0-.65,0-1Z"/><path class="cls-1" d="M454,313.6c-.08,0-.6.08-1.54.23a54.37,54.37,0,0,1-6.67.24c.33-8.88,1.41-16.53,1.41-16.53v1.62c0-.6-.39-.9-1.14-.9a17.06,17.06,0,0,0-8,2.36c-2.91,1.59-4.37,3.24-4.37,5V306l.49,9h-4.38c-1.08,0-1.66.33-1.74,1l-.37,4.51a1.31,1.31,0,0,0,1.37,1.24h.56a23.35,23.35,0,0,1,4.88-.72,346.31,346.31,0,0,1-2.5,43c0,2.14,1.52,3.65,4.58,4.52a33.5,33.5,0,0,0,9.22,1.31c1-.08,1.56-.52,1.56-1.31a7.51,7.51,0,0,0-.19-1.07c-.11-.56-.27-1.46-.48-2.73s-.38-3-.52-5.06-.3-5.22-.42-9.34-.18-9.39-.18-15.77,0-10.93.11-12.79h5a12.42,12.42,0,0,0,2.86-3.15,7.71,7.71,0,0,0,1.31-3.64C454.83,314.07,454.54,313.6,454,313.6Z"/><path class="cls-1" d="M493.38,347.27c-.48,0-.87.32-1.19,1a12.75,12.75,0,0,1-2.51,4,11.6,11.6,0,0,1-8.8,4.17,11.1,11.1,0,0,1-7-2.15,10.62,10.62,0,0,1-3.8-5.53,41.37,41.37,0,0,1-1.31-5.36,40.19,40.19,0,0,1-.3-5.83,30.92,30.92,0,0,1,1.14-8.08,21.12,21.12,0,0,1,2.43-6.19,10.91,10.91,0,0,1,3.27-3.22,6.66,6.66,0,0,1,3.4-1.25q5.7,0,5.7,4.64a4.06,4.06,0,0,1-1.78,3.81c-1.27.56-1.95,1.28-2,2.14a5,5,0,0,0,1.67,3.94A6.39,6.39,0,0,0,485,335a15.27,15.27,0,0,0,2.61.19,7.22,7.22,0,0,0,3.52-1.08,9.32,9.32,0,0,0,4.76-8.56,12.09,12.09,0,0,0-1.67-6.42q-4.05-6.68-13.92-6.67a23,23,0,0,0-11.43,2.73,19,19,0,0,0-7.49,7.51A41.77,41.77,0,0,0,456,343.94q0,11.3,5.11,17.91t16.06,6.61A19.67,19.67,0,0,0,490.1,364,13.74,13.74,0,0,0,495,349.23C494.63,347.93,494.09,347.27,493.38,347.27Z"/><path class="cls-1" d="M545.78,366.31c-2.23-2.53-3.33-7.7-3.33-15.47,0-2.22.17-6,.54-11.3s.52-9.48.52-12.5a14.77,14.77,0,0,0-1.54-7.26q-4.17-7.36-15-7.37c-4.29,0-7.41.68-9.4,2a1.61,1.61,0,0,1-1,.36q-.48,0-.48-.72l.12-11.54c0-7.76-.16-13.69-.48-17.73-.16-.86-1.24-1.31-3.27-1.31s-4.89.82-8.62,2.45-5.6,3-5.6,4.09c0,.41.28.76.84,1.09l1.06.59a8.57,8.57,0,0,1,2.09,3.08,15.93,15.93,0,0,1,1.36,5.72l.12,2.61q.72,9.28.72,18.34a335.44,335.44,0,0,1-2.62,43.31l-.23,2.25c0,1.28.55,1.91,1.66,1.91a18.22,18.22,0,0,0,9.17-2.68c3.08-1.78,4.64-3.82,4.64-6.12,0-.33-.21-1.69-.6-4.11s-.59-7.68-.59-15.77,0-12.88.12-14.4l.35-1.54a6.41,6.41,0,0,1,2.55-3.22,9.34,9.34,0,0,1,5.66-1.54,7,7,0,0,1,5.59,2.31,9.84,9.84,0,0,1,2,6.61c0,2.86-.78,7.31-2.38,13.32s-2.38,10.71-2.38,14q0,12.84,13.81,12.85c3.4,0,5.12-.39,5.12-1.19A1.73,1.73,0,0,0,545.78,366.31Z"/><path class="cls-1" d="M562.86,346.55a42.1,42.1,0,0,0,12-2.85,23.22,23.22,0,0,0,7.49-4.52,19.06,19.06,0,0,0,3.82-5.35,19.28,19.28,0,0,0,1.66-4.46,26.69,26.69,0,0,0,.24-4.05,11.34,11.34,0,0,0-1.55-5.42q-3.79-7.48-14.51-7.49-11.79,0-17.67,9a37,37,0,0,0-5.9,20.63c0,7.73,1.6,14.1,4.76,19.11s8.1,7.49,14.77,7.49a25.64,25.64,0,0,0,7.49-1.19,19.63,19.63,0,0,0,5.41-2.56,14,14,0,0,0,4.16-5A16.3,16.3,0,0,0,586.9,352a6.64,6.64,0,0,0-.47-2c-.32-.87-.74-1.31-1.26-1.31a1.4,1.4,0,0,0-1.24.95,13.94,13.94,0,0,1-3.1,4.41,12.29,12.29,0,0,1-8.68,3.32c-3.42,0-6-1.11-7.73-3.32a16.73,16.73,0,0,1-1.73-3.52,9.82,9.82,0,0,1-.77-3.15C561.92,346.84,562.23,346.55,562.86,346.55Zm-1.78-7.37-.12-3q0-8.81,3.93-14a7.28,7.28,0,0,1,6.18-3.33c3.42,0,5.12,2.14,5.12,6.43l-.12,1.43q-.24,3.21-3.09,7.61a12.71,12.71,0,0,1-4.29,3.63,16.4,16.4,0,0,1-6.65,2Q561.08,339.9,561.08,339.18Z"/><path class="cls-1" d="M636.51,366.55q-3.19-4.28-3.2-13.93,0-4,.77-12.37c.51-5.56.77-9.83.77-12.84q0-7.52-4.52-11.43t-12.26-3.93q-7.73,0-11.41,3.81a1,1,0,0,1-.72.24.54.54,0,0,1-.59-.36c-1.19-2.77-3.61-4.17-7.26-4.17q-3.57,0-3.57,1.56,1.07,5.36,1.06,23.31a191.9,191.9,0,0,1-2.13,30.83c0,1,1,1.54,3.15,1.54a19.93,19.93,0,0,0,7.49-1.84c2.91-1.23,4.35-3,4.35-5.18l-.24-2.62q-.83-9.15-.84-21.54c0-5.4.08-9.06.24-11a8.86,8.86,0,0,1,2.21-5.16,7.19,7.19,0,0,1,5.77-2.27q7.84,0,7.84,9.51c0,3.1-.74,7.63-2.25,13.58s-2.26,10.59-2.26,13.91q0,13.11,14.75,13.09c2.22,0,3.34-.51,3.34-1.54A1.82,1.82,0,0,0,636.51,366.55Z"/><path class="cls-2" d="M424.82,286.23,416,282.77a.48.48,0,0,0-.56.16l-6.85,9.62a.48.48,0,0,0-.07.4.46.46,0,0,0,.28.31l.26.11,8.63,3.37L416,299.63a.51.51,0,0,0,0,.4.5.5,0,0,0,.27.28L418,301a.58.58,0,0,0,.41,0,.5.5,0,0,0,.23-.32l.77-3.24,2.62,1,.95.36a.52.52,0,0,0,.42,0,.58.58,0,0,0,.23-.36l1.47-11.71A.47.47,0,0,0,424.82,286.23Zm-7,13.69-.74-.3,1.4-2.49Zm.91-7.34a1.43,1.43,0,0,0,.35,1.56l-1,1.76-8.45-3.3.12-.17L416,283.8l6.3,2.46-2.13,5.41a1.62,1.62,0,0,0-.58.11A1.44,1.44,0,0,0,418.77,292.58Zm.89.35a.46.46,0,0,1,.61-.27.49.49,0,0,1,.27.62.47.47,0,1,1-.88-.35Zm3.11,4.8-.68-.27-2.45-1,.48-2a1.43,1.43,0,0,0,1.31-.9.17.17,0,0,0,0-.07A1.4,1.4,0,0,0,421,292l2.13-5.42,1,.39Z"/><path class="cls-1" d="M223.58,365q-1.44-3-1.43-15.23t.65-23.38c.45-7.42.66-11.92.66-13.51-.08-1-1.05-1.43-2.92-1.43s-4.81.68-8.85,2-6.08,2.73-6.08,4.16a.91.91,0,0,0,.72.95,5.3,5.3,0,0,1,1.66,1.78q2.25,3.57,2.26,13.46l-1.31,27.72c0,2.13.41,3.4,1.19,3.81a20.81,20.81,0,0,0,9.29,2.38c3,0,4.52-.53,4.52-1.55A2.38,2.38,0,0,0,223.58,365Zm-2.7-69.82.47-2a1.41,1.41,0,0,0,1.31-.91.07.07,0,0,0,0-.06,3.66,3.66,0,0,0-.77-1.07,3.25,3.25,0,0,0-1.11-.7,1.47,1.47,0,0,0-.8.79,1.46,1.46,0,0,0,.35,1.57l-1,1.76-8.46-3.3.13-.18-.14.11a3.13,3.13,0,0,0-.63.84q-1,1.77-1,5.88c0,3.55.51,5.3,1.54,5.3a.7.7,0,0,0,.59-.35c.64-1,2-1.55,4.17-1.55l2.85.12c1.82,0,3.1-.42,3.81-1.25a5.46,5.46,0,0,0,1-3.07c0-.31,0-.64,0-1Z"/><path class="cls-2" d="M226.06,284.88l-8.86-3.46a.47.47,0,0,0-.55.16l-6.86,9.62a.48.48,0,0,0-.07.4.47.47,0,0,0,.29.31l.26.11,8.62,3.37-1.63,2.89a.48.48,0,0,0,.23.68l1.77.69a.51.51,0,0,0,.4,0,.45.45,0,0,0,.23-.31l.77-3.24,2.63,1,.94.37a.51.51,0,0,0,.42,0,.5.5,0,0,0,.23-.35l1.48-11.71A.49.49,0,0,0,226.06,284.88Zm-7,13.69-.75-.3,1.41-2.49Zm.9-7.35a1.46,1.46,0,0,0,.35,1.57l-1,1.76-8.46-3.3.13-.18,6.16-8.62,6.3,2.46-2.12,5.41a1.58,1.58,0,0,0-.58.11A1.47,1.47,0,0,0,220,291.22Zm.89.35a.48.48,0,1,1,.88.36.47.47,0,0,1-.61.27A.5.5,0,0,1,220.89,291.57Zm3.11,4.8-.67-.27-2.45-1,.47-2a1.41,1.41,0,0,0,1.31-.91.07.07,0,0,0,0-.06,1.41,1.41,0,0,0-.42-1.53l2.12-5.42,1,.39Z"/><path class="cls-2" d="M195.29,214.91a41.53,41.53,0,0,0,40.76,33.88H369.84a41.51,41.51,0,0,0,40.76-33.88,41.51,41.51,0,0,0,33.88-40.75,8.29,8.29,0,0,0-8.29-8.3H422.6A293.4,293.4,0,0,1,328.38,40V8.29A8.29,8.29,0,0,0,320.09,0H286.36a8.29,8.29,0,0,0-8.29,8.29V40a293.77,293.77,0,0,1-94.71,125.9H169.7a8.29,8.29,0,0,0-8.29,8.3A41.52,41.52,0,0,0,195.29,214.91Zm174.55,17.3H236.05a24.91,24.91,0,0,1-23.45-16.6H393.3A24.93,24.93,0,0,1,369.84,232.21ZM403,199H202.88a24.92,24.92,0,0,1-23.46-16.59H426.48A24.93,24.93,0,0,1,403,199ZM294.19,44.29a8.23,8.23,0,0,0,.46-4.11V16.59h17.14V40.18a8.24,8.24,0,0,0,.47,4.11,308.71,308.71,0,0,0,84.31,121.57H209.42A309.25,309.25,0,0,0,294.19,44.29Z"/></g></g></svg>