<svg xmlns="http://www.w3.org/2000/svg" xmlns:xlink="http://www.w3.org/1999/xlink" viewBox="0 0 443.15 853.85"><defs><style>.cls-1{fill:url(#Dégradé_sans_nom_44);}.cls-2{fill:url(#Dégradé_sans_nom_44-2);}.cls-3{fill:url(#Dégradé_sans_nom_44-3);}.cls-4{fill:url(#Dégradé_sans_nom_44-4);}.cls-5{fill:url(#Dégradé_sans_nom_44-5);}.cls-6{fill:url(#Dégradé_sans_nom_44-6);}.cls-7{fill:url(#Dégradé_sans_nom_44-7);}.cls-8{fill:url(#Dégradé_sans_nom_44-8);}.cls-9{fill:url(#Dégradé_sans_nom_44-9);}.cls-10{fill:url(#Dégradé_sans_nom_44-10);}.cls-11{fill:url(#Dégradé_sans_nom_44-11);}.cls-12{fill:url(#Dégradé_sans_nom_44-12);}.cls-13{fill:url(#Dégradé_sans_nom_44-13);}.cls-14{fill:url(#Dégradé_sans_nom_44-14);}.cls-15{fill:url(#Dégradé_sans_nom_44-15);}.cls-16{fill:url(#Dégradé_sans_nom_44-16);}.cls-17{fill:url(#Dégradé_sans_nom_44-17);}.cls-18{fill:url(#Dégradé_sans_nom_44-18);}.cls-19{fill:url(#Dégradé_sans_nom_44-19);}.cls-20{fill:url(#Dégradé_sans_nom_44-20);}.cls-21{fill:url(#Dégradé_sans_nom_44-21);}.cls-22{fill:url(#Dégradé_sans_nom_44-22);}.cls-23{fill:url(#Dégradé_sans_nom_44-23);}.cls-24{fill:url(#Dégradé_sans_nom_44-24);}.cls-25{fill:url(#Dégradé_sans_nom_44-25);}.cls-26{fill:url(#Dégradé_sans_nom_44-26);}.cls-27{fill:url(#Dégradé_sans_nom_44-27);}.cls-28{fill:url(#Dégradé_sans_nom_44-28);}.cls-29{fill:url(#Dégradé_sans_nom_44-29);}.cls-30{fill:url(#Dégradé_sans_nom_44-30);}.cls-31{fill:url(#Dégradé_sans_nom_44-31);}.cls-32{fill:url(#Dégradé_sans_nom_44-32);}.cls-33{fill:url(#Dégradé_sans_nom_44-33);}.cls-34{fill:url(#Dégradé_sans_nom_44-34);}.cls-35{fill:url(#Dégradé_sans_nom_44-35);}.cls-36{fill:url(#Dégradé_sans_nom_44-36);}.cls-37{fill:url(#Dégradé_sans_nom_44-37);}.cls-38{fill:url(#Dégradé_sans_nom_44-38);}.cls-39{fill:url(#Dégradé_sans_nom_44-39);}.cls-40{fill:url(#Dégradé_sans_nom_44-40);}.cls-41{fill:url(#Dégradé_sans_nom_44-41);}.cls-42{fill:url(#Dégradé_sans_nom_44-42);}.cls-43{fill:url(#Dégradé_sans_nom_44-43);}.cls-44{fill:url(#Dégradé_sans_nom_44-44);}.cls-45{fill:url(#Dégradé_sans_nom_44-45);}</style><radialGradient id="Dégradé_sans_nom_44" cx="240.39" cy="358.62" r="243.21" gradientUnits="userSpaceOnUse"><stop offset="0" stop-color="#98c73a"/><stop offset="1" stop-color="#3c923c"/></radialGradient><radialGradient id="Dégradé_sans_nom_44-2" cx="219.8" cy="84.15" r="41.54" xlink:href="#Dégradé_sans_nom_44"/><radialGradient id="Dégradé_sans_nom_44-3" cx="216.04" cy="250.99" r="21.86" xlink:href="#Dégradé_sans_nom_44"/><radialGradient id="Dégradé_sans_nom_44-4" cx="208.01" cy="265.26" r="21.67" xlink:href="#Dégradé_sans_nom_44"/><radialGradient id="Dégradé_sans_nom_44-5" cx="256.26" cy="353.91" r="11.43" xlink:href="#Dégradé_sans_nom_44"/><radialGradient id="Dégradé_sans_nom_44-6" cx="204.39" cy="272.74" r="196.22" xlink:href="#Dégradé_sans_nom_44"/><radialGradient id="Dégradé_sans_nom_44-7" cx="207.47" cy="462.65" r="9.43" xlink:href="#Dégradé_sans_nom_44"/><radialGradient id="Dégradé_sans_nom_44-8" cx="236.12" cy="413" r="57.66" xlink:href="#Dégradé_sans_nom_44"/><radialGradient id="Dégradé_sans_nom_44-9" cx="35.49" cy="750.51" r="42.5" xlink:href="#Dégradé_sans_nom_44"/><radialGradient id="Dégradé_sans_nom_44-10" cx="125.59" cy="750.24" r="43.68" xlink:href="#Dégradé_sans_nom_44"/><radialGradient id="Dégradé_sans_nom_44-11" cx="221.78" cy="750.17" r="44.07" xlink:href="#Dégradé_sans_nom_44"/><radialGradient id="Dégradé_sans_nom_44-12" cx="315.96" cy="750.17" r="42.94" xlink:href="#Dégradé_sans_nom_44"/><radialGradient id="Dégradé_sans_nom_44-13" cx="408.62" cy="750.17" r="43.15" xlink:href="#Dégradé_sans_nom_44"/><radialGradient id="Dégradé_sans_nom_44-14" cx="10.47" cy="829.36" r="12.19" xlink:href="#Dégradé_sans_nom_44"/><radialGradient id="Dégradé_sans_nom_44-15" cx="27.36" cy="834.27" r="7.43" xlink:href="#Dégradé_sans_nom_44"/><radialGradient id="Dégradé_sans_nom_44-16" cx="38.8" cy="832.05" r="8.44" xlink:href="#Dégradé_sans_nom_44"/><radialGradient id="Dégradé_sans_nom_44-17" cx="49.85" cy="834.23" r="7.62" xlink:href="#Dégradé_sans_nom_44"/><radialGradient id="Dégradé_sans_nom_44-18" cx="64.29" cy="839.48" r="10.89" xlink:href="#Dégradé_sans_nom_44"/><radialGradient id="Dégradé_sans_nom_44-19" cx="79.2" cy="834.23" r="7.62" xlink:href="#Dégradé_sans_nom_44"/><radialGradient id="Dégradé_sans_nom_44-20" cx="94.03" cy="834.27" r="7.81" xlink:href="#Dégradé_sans_nom_44"/><radialGradient id="Dégradé_sans_nom_44-21" cx="107.8" cy="834.27" r="7.43" xlink:href="#Dégradé_sans_nom_44"/><radialGradient id="Dégradé_sans_nom_44-22" cx="119.23" cy="832.05" r="8.44" xlink:href="#Dégradé_sans_nom_44"/><radialGradient id="Dégradé_sans_nom_44-23" cx="130.29" cy="834.23" r="7.62" xlink:href="#Dégradé_sans_nom_44"/><radialGradient id="Dégradé_sans_nom_44-24" cx="144.11" cy="834.23" r="7.27" xlink:href="#Dégradé_sans_nom_44"/><radialGradient id="Dégradé_sans_nom_44-25" cx="157.07" cy="834.3" r="7.44" xlink:href="#Dégradé_sans_nom_44"/><radialGradient id="Dégradé_sans_nom_44-26" cx="181.21" cy="829.7" r="11.63" xlink:href="#Dégradé_sans_nom_44"/><radialGradient id="Dégradé_sans_nom_44-27" cx="202.23" cy="829.58" r="9.63" xlink:href="#Dégradé_sans_nom_44"/><radialGradient id="Dégradé_sans_nom_44-28" cx="214.43" cy="834.27" r="7.81" xlink:href="#Dégradé_sans_nom_44"/><radialGradient id="Dégradé_sans_nom_44-29" cx="225.81" cy="832.05" r="8.44" xlink:href="#Dégradé_sans_nom_44"/><radialGradient id="Dégradé_sans_nom_44-30" cx="235.76" cy="834.3" r="7.44" xlink:href="#Dégradé_sans_nom_44"/><radialGradient id="Dégradé_sans_nom_44-31" cx="249.65" cy="839.48" r="11.2" xlink:href="#Dégradé_sans_nom_44"/><radialGradient id="Dégradé_sans_nom_44-32" cx="263.59" cy="834.23" r="7.27" xlink:href="#Dégradé_sans_nom_44"/><radialGradient id="Dégradé_sans_nom_44-33" cx="276.32" cy="834.23" r="7.75" xlink:href="#Dégradé_sans_nom_44"/><radialGradient id="Dégradé_sans_nom_44-34" cx="287.92" cy="832.05" r="8.44" xlink:href="#Dégradé_sans_nom_44"/><radialGradient id="Dégradé_sans_nom_44-35" cx="295.16" cy="831.1" r="8.65" xlink:href="#Dégradé_sans_nom_44"/><radialGradient id="Dégradé_sans_nom_44-36" cx="305.85" cy="834.48" r="7.98" xlink:href="#Dégradé_sans_nom_44"/><radialGradient id="Dégradé_sans_nom_44-37" cx="319.94" cy="834.3" r="7.44" xlink:href="#Dégradé_sans_nom_44"/><radialGradient id="Dégradé_sans_nom_44-38" cx="345.81" cy="829.23" r="12.6" xlink:href="#Dégradé_sans_nom_44"/><radialGradient id="Dégradé_sans_nom_44-39" cx="365.14" cy="834.3" r="7.44" xlink:href="#Dégradé_sans_nom_44"/><radialGradient id="Dégradé_sans_nom_44-40" cx="379.41" cy="829.79" r="10.32" xlink:href="#Dégradé_sans_nom_44"/><radialGradient id="Dégradé_sans_nom_44-41" cx="390.43" cy="831.1" r="8.65" xlink:href="#Dégradé_sans_nom_44"/><radialGradient id="Dégradé_sans_nom_44-42" cx="401.35" cy="834.27" r="7.43" xlink:href="#Dégradé_sans_nom_44"/><radialGradient id="Dégradé_sans_nom_44-43" cx="411.88" cy="831.1" r="8.65" xlink:href="#Dégradé_sans_nom_44"/><radialGradient id="Dégradé_sans_nom_44-44" cx="423.55" cy="834.27" r="7.81" xlink:href="#Dégradé_sans_nom_44"/><radialGradient id="Dégradé_sans_nom_44-45" cx="437.1" cy="834.3" r="7.44" xlink:href="#Dégradé_sans_nom_44"/></defs><title>Chong</title><g id="Calque_2" data-name="Calque 2"><g id="Calque_1-2" data-name="Calque 1"><path class="cls-1" d="M232.89,23q7.88,20.64,16.48,41t17.85,40.38c3.07,6.7,6.21,13.36,9.15,20.2,1.46,3.43,2.89,6.9,4.05,10.56a45.68,45.68,0,0,1,1.86,23.21,108.33,108.33,0,0,1-2.54,11.1,79.59,79.59,0,0,0-2.32,10.32,27.81,27.81,0,0,0,.39,9.73,30.89,30.89,0,0,0,1.42,4.69,22.63,22.63,0,0,0,2.17,4.18,24.83,24.83,0,0,0,3,3.65c1.16,1.18,2.54,2.38,3.94,3.74a34.22,34.22,0,0,1,10.94,22,45.5,45.5,0,0,1-.67,12.18,98.36,98.36,0,0,1-2.79,11.25c-2.21,7.24-4.7,14.14-6.81,21.06a164.64,164.64,0,0,0-5.19,20.8A121.44,121.44,0,0,0,282,314.1a117.54,117.54,0,0,0,1.86,21c.62,3.48,1.36,6.94,2.24,10.42s1.84,7,2.79,10.67c.23.95.48,1.89.68,2.87l.59,2.94c.21,1,.31,1.95.47,2.93s.31,2,.39,2.93c.19,1.95.42,3.9.5,5.84l.16,2.91.06,2.89a194.33,194.33,0,0,1-1.11,22.84c-.36,3.77-.86,7.5-1.34,11.24s-1.09,7.44-1.76,11.13c-1.24,7.41-2.77,14.72-4.34,22-6.57,29.14-15.51,57.52-25.64,85.36s-21.4,55.21-33.38,82.23S199.5,668,185.76,694.2l-1.37-.59c9.78-27.88,20-55.53,30-83.21s19.76-55.4,29-83.23l3.46-10.43,3.36-10.45c2.2-7,4.46-13.94,6.56-20.94s4.26-14,6.23-21,3.94-14,5.75-21.08,3.52-14.1,5-21.19c.78-3.54,1.4-7.09,2.07-10.64s1.2-7.1,1.64-10.66a180,180,0,0,0,1.67-21.25l0-2.64-.08-2.61c0-1.75-.17-3.46-.29-5.19,0-.86-.17-1.7-.26-2.55s-.17-1.71-.33-2.53l-.42-2.5c-.14-.83-.34-1.67-.52-2.52-.8-3.45-1.73-7.09-2.55-10.78s-1.56-7.46-2.15-11.25A129.23,129.23,0,0,1,271,314a132.69,132.69,0,0,1,2.56-22.87,177.6,177.6,0,0,1,6-21.93c2.4-7.11,5.11-14,7.39-20.81s4.07-13.57,3.67-19.92a24,24,0,0,0-2.33-9.06,26.7,26.7,0,0,0-2.41-4.1,34.05,34.05,0,0,0-3.21-3.73c-1.2-1.24-2.57-2.51-4-4a32,32,0,0,1-3.88-5,30,30,0,0,1-2.76-5.68,39.37,39.37,0,0,1-1.61-5.93,35,35,0,0,1-.1-12.25,86.84,86.84,0,0,1,2.86-11.15A102.41,102.41,0,0,0,276,157.24a39.71,39.71,0,0,0-1-20.43c-.95-3.41-2.22-6.81-3.53-10.2-2.67-6.78-5.59-13.56-8.44-20.35-5.74-13.6-11.32-27.28-16.57-41.07S236.21,37.5,231.47,23.53Z"/><path class="cls-2" d="M241.6,129.48a91,91,0,0,0,1.29-11.78,67.15,67.15,0,0,0-.49-11.39A69.57,69.57,0,0,0,236,85.24a88.45,88.45,0,0,0-11.8-18.36,75.85,75.85,0,0,0-7.4-7.77,45.49,45.49,0,0,0-8.08-6A20.64,20.64,0,0,0,205,51.34a6.9,6.9,0,0,0-1.35-.29c-.29,0-.48,0-.36,0s0-.05.06-.06a.18.18,0,0,0,.1-.07s0,0,.06,0,0,0,0,0a1.78,1.78,0,0,0-.47.51,9.53,9.53,0,0,0-.73,1.44c-.22.62-.48,1.27-.68,2a49.73,49.73,0,0,0-1.44,10.15c-.1,1.81-.11,3.65-.1,5.49s.07,3.68.21,5.46a59.08,59.08,0,0,0,1.86,10.55A63.75,63.75,0,0,0,206,96.74a81.06,81.06,0,0,0,13.3,19,54.68,54.68,0,0,1-19.46-15A56.56,56.56,0,0,1,192.93,90c-.46-1-.93-2-1.37-3s-.76-2-1.14-3.06a30.74,30.74,0,0,1-1-3.13c-.29-1.06-.6-2.12-.83-3.19A77,77,0,0,1,186.92,65a57.37,57.37,0,0,1,0-6.56,46.3,46.3,0,0,1,.83-6.89,25.5,25.5,0,0,1,2.75-7.62,17.21,17.21,0,0,1,3.26-4.09c.38-.33.73-.65,1.15-1s.86-.58,1.31-.85,1-.49,1.43-.71a14.25,14.25,0,0,1,1.47-.51,13.25,13.25,0,0,1,2.89-.56l.7-.06h.64l1.29,0a21.72,21.72,0,0,1,4.47.8,33.46,33.46,0,0,1,7.08,3c8.18,4.88,14.15,11.22,19.26,18.15a80.54,80.54,0,0,1,6.7,11A75.85,75.85,0,0,1,247,81a62.56,62.56,0,0,1,2.76,25.28A53.14,53.14,0,0,1,241.6,129.48Z"/><path class="cls-3" d="M233.5,265.93l-3.71-3.46-15.38-13.34-1.14-1.63-14.92-12.94a2.9,2.9,0,1,0-1.27,1.45L212,249l1.78.89,15.37,13.34,3.63,2.92,6.52,5.25Zm-36.19-33a1.71,1.71,0,0,1-1.27,2.12,1.9,1.9,0,0,1-2.21-1.32,1.71,1.71,0,0,1,1.27-2.12A1.88,1.88,0,0,1,197.31,232.94Z"/><path class="cls-4" d="M229.85,271.46l-4.87-1.4-19.76-4.91-1.75-.93-19.18-4.76a2.89,2.89,0,1,0-.47,1.87L203,266.09h2L224.74,271l4.56.95,8.19,1.71Zm-47.22-13a1.69,1.69,0,0,1-.17,2.46,1.88,1.88,0,0,1-2.56-.17,1.69,1.69,0,0,1,.17-2.46A1.87,1.87,0,0,1,182.63,258.49Z"/><path class="cls-5" d="M265.89,353.91a17.75,17.75,0,0,1-.45,3.8,11.23,11.23,0,0,1-1.61,3.77,8.26,8.26,0,0,1-3.29,2.78,8.43,8.43,0,0,1-4.28.75,9.52,9.52,0,0,1-4-1.37,14,14,0,0,1-3.1-2.6,13.49,13.49,0,0,1-3.4-7.13,9.7,9.7,0,0,1,2.52-8,10.61,10.61,0,0,1,8-3.56,10.25,10.25,0,0,1,4.35,1.06,8.6,8.6,0,0,1,3.25,2.9,11.32,11.32,0,0,1,1.61,3.79A16.66,16.66,0,0,1,265.89,353.91Zm-.4,0a6.43,6.43,0,0,0-1-3.4,7.46,7.46,0,0,0-2.49-2.33,11.82,11.82,0,0,0-2.86-1.19,9.29,9.29,0,0,0-2.86-.37,8.52,8.52,0,0,0-5.33,2,9,9,0,0,0-1.9,2.34,8.72,8.72,0,0,0-1.11,3,7.09,7.09,0,0,0,.25,3.35,6.54,6.54,0,0,0,1.88,2.86,6.4,6.4,0,0,0,3,1.48,9.53,9.53,0,0,0,3.19.07,15.12,15.12,0,0,0,5.76-2,7.81,7.81,0,0,0,2.48-2.35A6.32,6.32,0,0,0,265.49,353.91Z"/><path class="cls-6" d="M178.1.31q-3.37,18-4.95,36.3-.79,9.12-1.15,18.26c-.21,6.09-.37,12.23-.49,18.33a345.45,345.45,0,0,0,1,36.45,185.94,185.94,0,0,0,6.42,35.46,150.76,150.76,0,0,0,6,16.85l1.78,4.09c.62,1.35,1.33,2.66,2,4s1.33,2.66,2,4,1.42,2.6,2.19,3.84a73.64,73.64,0,0,0,4.85,7.2c1.75,2.3,3.71,4.57,5.7,7a146.42,146.42,0,0,1,11.05,15.41l2.46,4,2.37,4,4.6,8c3.07,5.32,6.11,10.69,9,16.18a166.22,166.22,0,0,1,8.2,17.14c.57,1.54,1.21,3,1.69,4.62l.77,2.37c.25.8.43,1.64.65,2.45a50.51,50.51,0,0,1,1.59,10.25,41.23,41.23,0,0,1-.09,5.33,44.81,44.81,0,0,1-.71,5.29,39,39,0,0,1-3.47,10.24,42,42,0,0,1-6.12,8.95,80.85,80.85,0,0,1-7.21,7c-4.82,4.17-9.34,7.87-13.4,11.93a89,89,0,0,0-10.84,13.08,108,108,0,0,0-8.46,14.85c-1.2,2.58-2.33,5.2-3.34,7.87s-1.88,5.38-2.72,8.13c-1.67,5.5-2.89,11.2-4.11,17.13l-.46,2.24-.4,2.14-.78,4.28c-.36,2.88-.85,5.74-1.05,8.65-2.31,23.23.63,47.18,6.24,70.54,1.39,5.85,3.06,11.65,4.77,17.45s3.62,11.56,5.67,17.27c4,11.48,8.67,22.76,13.7,33.94l-1.3.74a259.72,259.72,0,0,1-18.71-32,277.39,277.39,0,0,1-14.27-34.47c-2-5.93-3.78-11.94-5.31-18s-2.79-12.28-3.78-18.52a174.45,174.45,0,0,1-2-38.13c.14-3.21.59-6.41.92-9.62l.74-4.79.38-2.38.42-2.28a183.36,183.36,0,0,1,4.32-18.63,113.25,113.25,0,0,1,17.41-35A102.21,102.21,0,0,1,205.21,315c4.8-4.42,10-8.26,14.56-11.92a67.71,67.71,0,0,0,6.23-5.54,27.75,27.75,0,0,0,4.48-6,27.06,27.06,0,0,0,2.62-7,34.92,34.92,0,0,0,.82-7.64,50,50,0,0,0-3.44-16,158.91,158.91,0,0,0-7.23-16.2c-2.7-5.39-5.55-10.76-8.45-16.14l-4.36-8.07-2.18-3.95-2.24-3.9a135.85,135.85,0,0,0-9.87-14.79c-1.81-2.37-3.78-4.8-5.66-7.45a80.82,80.82,0,0,1-5.13-8.21,155.38,155.38,0,0,1-13.7-35.13,192.55,192.55,0,0,1-5.23-37,351.52,351.52,0,0,1,.46-37c.36-6.14.76-12.24,1.21-18.39s1.1-12.27,1.89-18.37Q172.42,18,176.63,0Z"/><circle class="cls-7" cx="207.47" cy="462.65" r="9.43"/><path class="cls-8" d="M233.08,335.39a136,136,0,0,0-5,19.91A77,77,0,0,0,227,375.07a42.7,42.7,0,0,0,1.85,9.26,31,31,0,0,0,4,8.14,30.28,30.28,0,0,0,2.83,3.46l1.77,1.92,1,1,.91,1.1a52.24,52.24,0,0,1,6.11,9.43,68.6,68.6,0,0,1,4.1,10.28,75.92,75.92,0,0,1,2.36,10.67,76.93,76.93,0,0,1,.84,10.81,78.91,78.91,0,0,1-.58,10.77,80.36,80.36,0,0,1-2,10.57,68.24,68.24,0,0,1-3.56,10.12,53.1,53.1,0,0,1-5.29,9.28,34,34,0,0,1-7.35,7.56,50.8,50.8,0,0,0,8.48-18.32,82.34,82.34,0,0,0,1.92-9.8c.41-3.3.65-6.62.73-9.92a92,92,0,0,0-1.62-19.65,69.55,69.55,0,0,0-6.06-18.3,44.51,44.51,0,0,0-5-7.95l-.71-.93-.76-.87-1.69-1.93a34.91,34.91,0,0,1-3.52-4.68,36.39,36.39,0,0,1-4.49-10.64,45,45,0,0,1-1.28-11.13,66.91,66.91,0,0,1,3.86-21.15,88.93,88.93,0,0,1,4.06-9.75A70.29,70.29,0,0,1,233.08,335.39Z"/><path class="cls-9" d="M63.88,766.86c1.75,0,2.63,2.21,2.63,6.65A27.53,27.53,0,0,1,64,785.42a23.17,23.17,0,0,1-6,8.17,30.43,30.43,0,0,1-8,4.71q-14.82,6.51-27.7-.28a28.47,28.47,0,0,1-10-8.24,39.1,39.1,0,0,1-5.54-11.43,68.13,68.13,0,0,1-3.19-20.91,96.1,96.1,0,0,1,2.08-20.5,78.07,78.07,0,0,1,6.37-18.21,35.18,35.18,0,0,1,12.19-13.92,32.18,32.18,0,0,1,18.28-5.27A31.53,31.53,0,0,1,51.76,701a27.45,27.45,0,0,1,7.83,3.6,18.35,18.35,0,0,1,5.4,6.58,21.82,21.82,0,0,1,2.35,10.39,22.05,22.05,0,0,1-3,11.49,12.78,12.78,0,0,1-4.44,4.23,13.55,13.55,0,0,1-7.2,1.87,9.18,9.18,0,0,1-9-5.68,10.7,10.7,0,0,1-1.11-4.85c0-1.75.6-2.77,1.8-3a6.85,6.85,0,0,0,3.6-3,10.27,10.27,0,0,0,1.66-5.82,7.66,7.66,0,0,0-1.38-4.57,9,9,0,0,0-7.62-3.47q-5,0-9.07,4.58a29.77,29.77,0,0,0-6.16,11.49,89.3,89.3,0,0,0-4.16,25.49q0,11.63,3.19,18.69,3.87,8.73,9.83,11.64a19.55,19.55,0,0,0,8.59,1.8q8.18,0,14.68-7.34a24.34,24.34,0,0,0,4.57-6.93A2,2,0,0,1,63.88,766.86Z"/><path class="cls-10" d="M115.82,737.22v1.94h24.52v-.28q.14-3.33.13-8.38t-.13-8.86q-.15-3.81-.28-6.45c-.09-1.75-.21-3.27-.35-4.57s-.25-2.28-.34-3a13.21,13.21,0,0,1-.14-1.87c0-.56.5-1.2,1.52-1.94a26.09,26.09,0,0,1,14.82-4.44c3.42,0,5.13.61,5.13,1.81,0,.09-.1.6-.28,1.52q-2.64,13.15-3.32,36.43-.42,23.26-.42,24.93,0,21.46,2.49,29.78a5.47,5.47,0,0,1,.42,1.87,2.61,2.61,0,0,1-1.11,1.73q-5.13,3.31-13.3,3.32-5.27,0-6-3.6a31.14,31.14,0,0,1-.42-6q0-4.09.49-12.54t.76-29.5H115.82q0,31.57,1.94,44.32c0,2.22-2.13,4-6.37,5.47a34.54,34.54,0,0,1-10.53,2.15c-2.77,0-4.15-.42-4.15-1.25a7.11,7.11,0,0,1,.41-2.08q2.64-5.81,2.63-46.81v-1.8H91.58c-.74,0-1.11-.28-1.11-.83a15.54,15.54,0,0,1,.56-2.15,13.46,13.46,0,0,1,2.56-4.36,5.77,5.77,0,0,1,4.5-2.5h1.53q0-27.28-3.19-31.44l-.55-.83a2.15,2.15,0,0,1-.84-1.73c0-.69.51-1.27,1.53-1.73a28.32,28.32,0,0,1,7.41-2.49,42.71,42.71,0,0,1,9.62-1.25q4.31,0,4.3,1.94v.41Q116.24,716.59,115.82,737.22Z"/><path class="cls-11" d="M198.09,723.37l.56-.83a31.54,31.54,0,0,1,4.5-11,27.47,27.47,0,0,1,6.23-6.92,24.38,24.38,0,0,1,7-3.53,29.63,29.63,0,0,1,9-1.67,29.12,29.12,0,0,1,16,4.3,27.44,27.44,0,0,1,10.18,11.63q6.36,14,6.37,31.72,0,29.78-13.85,43.35a35.18,35.18,0,0,1-15,9,34.73,34.73,0,0,1-9.84,1.52q-17.31,0-25.48-11.84t-8.17-30a96.45,96.45,0,0,1,1.8-19.32q1.8-8.79,3.74-12.4l1.8-3.6a1.86,1.86,0,0,1,1.8-1.24,6.33,6.33,0,0,1,1.87.2,5.15,5.15,0,0,1,1,.42A1.2,1.2,0,0,0,198.09,723.37Zm25.21-13.72a10.86,10.86,0,0,0-8.31,3.61q-5.82,6.36-5.82,16.13t5,11.7a1.73,1.73,0,0,1,1.25,1.81,9.64,9.64,0,0,1-2.77,7,11.36,11.36,0,0,1-6.79,3.39c-.83,0-1.25.33-1.25,1-.09,1-.14,2.47-.14,4.37s.1,4,.28,6.23a59.54,59.54,0,0,0,1.32,8,33.76,33.76,0,0,0,2.77,8,16.52,16.52,0,0,0,5,5.81,13.77,13.77,0,0,0,8.45,2.43,12.91,12.91,0,0,0,9.35-4.16,22.7,22.7,0,0,0,5.82-10.8,88.31,88.31,0,0,0,3-22.37,114.63,114.63,0,0,0-1.39-18.91,56.57,56.57,0,0,0-3.25-12.46,22.3,22.3,0,0,0-4.51-6.93,13.1,13.1,0,0,0-4.43-3.25A10.84,10.84,0,0,0,223.3,709.65Z"/><path class="cls-12" d="M335.77,755.22l-.14-16.48q0-24.51-1.66-32.55a5.68,5.68,0,0,1-.28-1.52q0-2.35,4.71-4a24,24,0,0,1,7.48-1.66c1.85,0,2.77.55,2.77,1.66,0,.09-.09.6-.28,1.52q-3.18,17-3.18,54.16,0,25.35,2.9,36.43c.37,1.2.56,1.85.56,1.94,0,1.94-2.13,3.53-6.37,4.78s-7.25,1.87-9,1.87c-2.77,0-4.67-.65-5.68-1.94q-3.06-3.88-9.91-21.82t-12-33.45l-5.26-15.51q-.29-.69-.69-.69c-.37,0-.79.32-1.25,1q-.69,12.87-.69,25.76t.21,19.81q.2,6.91.48,10.52c.18,2.4.37,4.32.55,5.75s.35,2.47.49,3.12a7.41,7.41,0,0,1,.21,1.38c0,1.76-1.53,3.12-4.57,4.09a27.5,27.5,0,0,1-8.25,1.45c-2.44,0-3.67-.55-3.67-1.66a6.8,6.8,0,0,1,.42-2.08c.28-.83.6-1.89,1-3.18Q286,789,286.6,776.21t.55-29.23q0-16.41-.41-23.89-.71-12.2-2.5-16.34a1.53,1.53,0,0,1-.41-1.11c0-1.48,2.44-2.91,7.34-4.3a45.33,45.33,0,0,1,11.43-2.07,43.82,43.82,0,0,1,4.77.13c1.3-.09,2.08.65,2.36,2.22q4,14.55,11.29,34.21t13,30.06a1.89,1.89,0,0,0,1.11.69Q335.77,766.58,335.77,755.22Z"/><path class="cls-13" d="M423.44,757.85q0-3.18-3.88-3.46h-9.83q-1.11,0-1.11-.69a14.22,14.22,0,0,1,2.91-6.44q2.09-2.43,3.46-2.7a101.5,101.5,0,0,1,12.75-.56c5.9,0,9.6,0,11.08.07a5.91,5.91,0,0,1,2.77.49,2.52,2.52,0,0,1,.55,1.59q0,.9-.48,11.5t-.49,19q0,8.39.56,10.53a16.32,16.32,0,0,1,.55,2.7q0,2.22-3.88,4.78c-2.58,1.71-6.49,3.21-11.7,4.5a71.88,71.88,0,0,1-17.25,1.94,30.87,30.87,0,0,1-21.88-8.73,37.13,37.13,0,0,1-9.9-15.09q-2.7-8.18-2.7-23,0-55,40.3-55a47,47,0,0,1,12.19,1.45A20.42,20.42,0,0,1,437,706.4,15,15,0,0,1,441,717.27a19.68,19.68,0,0,1-1.38,7.07q-2.49,7.33-11.08,7.34-4.71,0-7.14-2.43a9.08,9.08,0,0,1-2.42-6.71,2,2,0,0,1,1.8-2.08q2.63-1.53,2.63-5.2a6.61,6.61,0,0,0-2.77-5.68,9.8,9.8,0,0,0-5.81-2,14.89,14.89,0,0,0-11.22,4.78A28.23,28.23,0,0,0,397,724.89a116,116,0,0,0-3.46,28.26q0,23.54,11.49,31.3a15.31,15.31,0,0,0,9,3q8.73,0,9.28-3.18.42-4.29.42-13.3Z"/><path class="cls-14" d="M7.2,838.5l.8-.14c.24,0,.36.13.36.4a4.16,4.16,0,0,1-.51,2.14,3,3,0,0,1-1.27,1.24,4.94,4.94,0,0,1-2.11.62A2.82,2.82,0,0,1,2,841.5a6.92,6.92,0,0,1-.83-3.78,21.39,21.39,0,0,1,1.38-6.56H.4a.35.35,0,0,1-.4-.4,2.83,2.83,0,0,1,.62-1.29,1.67,1.67,0,0,1,1.31-.89H3.56a42.44,42.44,0,0,1,6.08-9.93,11.62,11.62,0,0,1,2.23-2,4.1,4.1,0,0,1,2.06-.94,1.17,1.17,0,0,1,1.09.65q.95,1.53,2.22,11.16a64.4,64.4,0,0,0,1.51,8.57c.71,2.94,1.37,4.66,2,5.14a.45.45,0,0,1,.22.37c0,.36-.52.7-1.55,1a9,9,0,0,1-2.36.47,3.18,3.18,0,0,1-1.26-.2,1.08,1.08,0,0,1-.54-.42,28.9,28.9,0,0,1-1.31-6.76L13.71,834c-.1-1.14-.2-2-.29-2.58l-.26-.19-7.6,0a14.31,14.31,0,0,0-.43,3.23,15.92,15.92,0,0,0,.09,2,3.23,3.23,0,0,0,.6,1.37A1.61,1.61,0,0,0,7.2,838.5Zm3.24-17.12a25,25,0,0,0-4.15,7.2h5.84a2,2,0,0,0,.82-.05.52.52,0,0,0,.1-.18q-.62-4.47-1-6.09t-.72-1.62C11.1,820.65,10.8,820.89,10.44,821.38Z"/><path class="cls-15" d="M33.35,838a4.29,4.29,0,0,1-1.66,3.44,6,6,0,0,1-3.94,1.36,5.8,5.8,0,0,1-4.91-2,8.66,8.66,0,0,1-1.57-5.47,12.8,12.8,0,0,1,1.64-6.51,5.8,5.8,0,0,1,2.29-2.29,7,7,0,0,1,3.49-.84,4.59,4.59,0,0,1,4.26,2,3.78,3.78,0,0,1,.5,2A2.85,2.85,0,0,1,32,832.32a2.22,2.22,0,0,1-1.07.33,4.27,4.27,0,0,1-.8-.06,1.9,1.9,0,0,1-.82-.49,1.49,1.49,0,0,1-.51-1.2c0-.26.23-.48.62-.65a1.26,1.26,0,0,0,.54-1.17q0-1.41-1.74-1.41a2,2,0,0,0-1,.38,3.34,3.34,0,0,0-1,1,6.58,6.58,0,0,0-.74,1.89,9.61,9.61,0,0,0-.35,2.47,12.86,12.86,0,0,0,.09,1.78,13.4,13.4,0,0,0,.4,1.64,3.26,3.26,0,0,0,1.17,1.69,3.33,3.33,0,0,0,2.12.66,3.54,3.54,0,0,0,2.69-1.28,3.9,3.9,0,0,0,.77-1.23.41.41,0,0,1,.36-.29c.22,0,.38.2.49.6A4.14,4.14,0,0,1,33.35,838Z"/><path class="cls-16" d="M34.73,828l.11-1.45c0-.22.19-.33.5-.33h1.28l-.15-2.91v-.15c0-.55.43-1.09,1.27-1.6a4.61,4.61,0,0,1,2.33-.76c.22,0,.33.1.33.29v0c-.1.65-.2,2.34-.29,5.05a16.55,16.55,0,0,0,2-.07l.48-.07c.17,0,.25.14.25.43a2.31,2.31,0,0,1-.4,1.11c-.27.45-.56.69-.87.71H40.07c0,.83,0,2.21,0,4.16s0,3.56.05,4.82.08,2.22.13,2.86.1,1.16.16,1.54.11.67.15.84a2.94,2.94,0,0,1,0,.33c0,.24-.16.37-.47.4a10.44,10.44,0,0,1-2.82-.4c-.93-.27-1.4-.73-1.4-1.39a105.73,105.73,0,0,0,.76-13.12,11.24,11.24,0,0,0-1.49.07h0C34.91,828.43,34.77,828.3,34.73,828Z"/><path class="cls-17" d="M56.29,826a62.35,62.35,0,0,0-.65,10,29.86,29.86,0,0,0,.36,5.89l.14.47c0,.32-.26.48-.8.48-1.86,0-2.93-.53-3.2-1.57,0-.12-.07-.18-.16-.18a.33.33,0,0,0-.24.15,4.1,4.1,0,0,1-3.49,1.49,6.42,6.42,0,0,1-2.72-.66,3,3,0,0,1-1.42-1.4,5,5,0,0,1-.55-2.45l.55-8a8.86,8.86,0,0,0-.51-3.56,1.89,1.89,0,0,1-.18-.51.29.29,0,0,1,.18-.29,5.13,5.13,0,0,1,1.49-.18q3.52,0,3.53,2.91a25.14,25.14,0,0,1-.75,4.14,23.48,23.48,0,0,0-.74,4.6,3.19,3.19,0,0,0,.6,2.09,2,2,0,0,0,1.67.73,2.06,2.06,0,0,0,1.69-.76,3.26,3.26,0,0,0,.73-1.53l.11-.76c.09-.85.14-2.34.14-4.48a24.37,24.37,0,0,0-.2-4,7.34,7.34,0,0,1-.2-1.07c0-.61.49-1.09,1.46-1.44a7.81,7.81,0,0,1,2.61-.53C56.11,825.59,56.29,825.74,56.29,826Z"/><path class="cls-18" d="M58.4,836.65q.08-3.67.07-6a29.71,29.71,0,0,0-.33-4.51c0-.24.25-.36.73-.36a4,4,0,0,1,1.26.18,2,2,0,0,1,.74.4,2.73,2.73,0,0,0,.67.58,2.2,2.2,0,0,0,.57-.32,5.65,5.65,0,0,1,3.14-.91,5.28,5.28,0,0,1,3,.87,4.8,4.8,0,0,1,1.84,2.29,13.77,13.77,0,0,1,1,5.16,15.76,15.76,0,0,1-1,5.39,6,6,0,0,1-1.6,2.38,3.63,3.63,0,0,1-2.47.92c-1.87,0-2.8-1.07-2.8-3.23,0-.58.12-.88.36-.88a1.76,1.76,0,0,1,.42.17,1.53,1.53,0,0,0,.67.16q2.58,0,2.58-5.47T64.51,828a2.3,2.3,0,0,0-1.29.34,1.81,1.81,0,0,0-.68.68l-.14.36A99.71,99.71,0,0,0,61.89,842q0,4.21.16,6c.11,1.23.17,2,.17,2.2a1.14,1.14,0,0,1-.22.66,7.15,7.15,0,0,1-2,1.69,4.47,4.47,0,0,1-2.19.74c-.24,0-.36-.16-.36-.47Q58.08,849.16,58.4,836.65Z"/><path class="cls-19" d="M85.63,826A63.54,63.54,0,0,0,85,836a29.86,29.86,0,0,0,.36,5.89l.15.47c0,.32-.27.48-.8.48-1.87,0-2.93-.53-3.2-1.57,0-.12-.08-.18-.16-.18a.3.3,0,0,0-.24.15,4.11,4.11,0,0,1-3.49,1.49,6.49,6.49,0,0,1-2.73-.66,3.09,3.09,0,0,1-1.42-1.4,5.07,5.07,0,0,1-.54-2.45l.54-8a8.86,8.86,0,0,0-.51-3.56,1.89,1.89,0,0,1-.18-.51.29.29,0,0,1,.18-.29,5.18,5.18,0,0,1,1.49-.18c2.36,0,3.53,1,3.53,2.91a25.85,25.85,0,0,1-.74,4.14,23.72,23.72,0,0,0-.75,4.6,3.19,3.19,0,0,0,.6,2.09,2.27,2.27,0,0,0,3.36,0,3.08,3.08,0,0,0,.73-1.53l.11-.76a44.66,44.66,0,0,0,.15-4.48,24.37,24.37,0,0,0-.2-4,6.11,6.11,0,0,1-.2-1.07c0-.61.48-1.09,1.45-1.44a7.82,7.82,0,0,1,2.62-.53C85.45,825.59,85.63,825.74,85.63,826Z"/><path class="cls-20" d="M87.38,842.47a57.94,57.94,0,0,0,.65-9.42,47.1,47.1,0,0,0-.32-7.13c0-.31.36-.47,1.09-.47A2.17,2.17,0,0,1,91,826.72c0,.07.08.11.18.11a.31.31,0,0,0,.22-.07,4.64,4.64,0,0,1,3.49-1.17,5.51,5.51,0,0,1,3.74,1.2,4.38,4.38,0,0,1,1.38,3.49c0,.93-.07,2.24-.23,3.93s-.24,3-.24,3.78a7.23,7.23,0,0,0,1,4.26.56.56,0,0,1,.15.36c0,.32-.34.47-1,.47q-4.52,0-4.51-4a18.68,18.68,0,0,1,.69-4.25,18.5,18.5,0,0,0,.69-4.15c0-1.93-.8-2.9-2.4-2.9a2.21,2.21,0,0,0-1.76.69,2.68,2.68,0,0,0-.67,1.58c0,.59-.08,1.71-.08,3.36,0,2.52.09,4.72.26,6.58l.07.8c0,.68-.44,1.21-1.33,1.59a6.08,6.08,0,0,1-2.29.56C87.7,842.94,87.38,842.78,87.38,842.47Z"/><path class="cls-21" d="M113.78,838a4.26,4.26,0,0,1-1.66,3.44,6,6,0,0,1-3.94,1.36,5.81,5.81,0,0,1-4.91-2,8.72,8.72,0,0,1-1.56-5.47,12.79,12.79,0,0,1,1.63-6.51,5.86,5.86,0,0,1,2.29-2.29,7,7,0,0,1,3.49-.84,4.58,4.58,0,0,1,4.26,2,3.69,3.69,0,0,1,.51,2,2.86,2.86,0,0,1-1.46,2.62,2.16,2.16,0,0,1-1.07.33,4.35,4.35,0,0,1-.8-.06,1.9,1.9,0,0,1-.82-.49,1.49,1.49,0,0,1-.51-1.2c0-.26.23-.48.62-.65a1.24,1.24,0,0,0,.55-1.17c0-.94-.58-1.41-1.75-1.41a2,2,0,0,0-1,.38,3.22,3.22,0,0,0-1,1,6.55,6.55,0,0,0-.75,1.89,9.61,9.61,0,0,0-.35,2.47,12.53,12.53,0,0,0,.1,1.78,11.76,11.76,0,0,0,.4,1.64,3.18,3.18,0,0,0,1.16,1.69,3.38,3.38,0,0,0,2.13.66,3.57,3.57,0,0,0,2.69-1.28,3.88,3.88,0,0,0,.76-1.23c.1-.2.22-.29.36-.29s.39.2.5.6A4.55,4.55,0,0,1,113.78,838Z"/><path class="cls-22" d="M115.16,828l.11-1.45q0-.33.51-.33h1.27l-.14-2.91v-.15c0-.55.42-1.09,1.27-1.6a4.58,4.58,0,0,1,2.33-.76c.21,0,.32.1.32.29v0c-.09.65-.19,2.34-.29,5.05a16.64,16.64,0,0,0,2-.07l.47-.07c.17,0,.26.14.26.43a2.42,2.42,0,0,1-.4,1.11c-.27.45-.56.69-.88.71h-1.52c0,.83,0,2.21,0,4.16s0,3.56,0,4.82.08,2.22.13,2.86.1,1.16.17,1.54.1.67.14.84a1.94,1.94,0,0,1,.06.33c0,.24-.16.37-.48.4a10.55,10.55,0,0,1-2.82-.4c-.93-.27-1.4-.73-1.4-1.39a105.66,105.66,0,0,0,.77-13.12,11.14,11.14,0,0,0-1.49.07h0C115.34,828.43,115.21,828.3,115.16,828Z"/><path class="cls-23" d="M136.72,826a63.54,63.54,0,0,0-.65,10,29.86,29.86,0,0,0,.36,5.89l.15.47c0,.32-.27.48-.8.48-1.87,0-2.93-.53-3.2-1.57,0-.12-.08-.18-.16-.18a.3.3,0,0,0-.24.15,4.11,4.11,0,0,1-3.49,1.49,6.49,6.49,0,0,1-2.73-.66,3.09,3.09,0,0,1-1.42-1.4,5.07,5.07,0,0,1-.54-2.45l.54-8a8.86,8.86,0,0,0-.51-3.56,1.89,1.89,0,0,1-.18-.51.29.29,0,0,1,.18-.29,5.18,5.18,0,0,1,1.49-.18c2.36,0,3.53,1,3.53,2.91a25.85,25.85,0,0,1-.74,4.14,23.72,23.72,0,0,0-.75,4.6,3.19,3.19,0,0,0,.6,2.09,2.27,2.27,0,0,0,3.36,0,3.08,3.08,0,0,0,.73-1.53l.11-.76a44.66,44.66,0,0,0,.15-4.48,24.37,24.37,0,0,0-.2-4,6.11,6.11,0,0,1-.2-1.07c0-.61.48-1.09,1.45-1.44a7.82,7.82,0,0,1,2.62-.53C136.54,825.59,136.72,825.74,136.72,826Z"/><path class="cls-24" d="M149.56,832.47l.15,1.27c0,.46-.44.69-1.31.69-1.77,0-2.66-.67-2.66-2a4.94,4.94,0,0,1,.26-1.31,5.07,5.07,0,0,0,.25-1.45,1.69,1.69,0,0,0-.36-1.08,1.3,1.3,0,0,0-1.06-.45,1.6,1.6,0,0,0-1.18.49,2,2,0,0,0-.6,1l-.14.51a21.88,21.88,0,0,0-.22,3.76c0,1.76,0,3.14.07,4.15s.1,1.7.15,2.07.07.6.07.67a1.69,1.69,0,0,1-1.13,1.48,5.05,5.05,0,0,1-2.25.56c-.75,0-1.13-.16-1.13-.47l.18-1.13a53.81,53.81,0,0,0,.51-8.25,42.7,42.7,0,0,0-.36-6.91c0-.29.25-.44.76-.44a2.62,2.62,0,0,1,2.62,1.35c0,.09.07.14.13.14a1.55,1.55,0,0,0,.49-.33,4.35,4.35,0,0,1,2.83-1,5.69,5.69,0,0,1,2,.4,3.37,3.37,0,0,1,2.07,3.49Z"/><path class="cls-25" d="M162.76,837.81a5.06,5.06,0,0,1-.56,2.42,4.34,4.34,0,0,1-1.28,1.53,6.3,6.3,0,0,1-1.65.78,8,8,0,0,1-2.29.36,5,5,0,0,1-4.51-2.29,10.7,10.7,0,0,1-1.46-5.83,11.28,11.28,0,0,1,1.8-6.31,6,6,0,0,1,5.4-2.77c2.19,0,3.67.77,4.44,2.29a3.47,3.47,0,0,1,.47,1.66,8,8,0,0,1-.07,1.23,5.74,5.74,0,0,1-.51,1.37,6,6,0,0,1-1.16,1.63,7.24,7.24,0,0,1-2.29,1.39,13.44,13.44,0,0,1-3.68.87c-.19,0-.29.08-.29.25a3.09,3.09,0,0,0,.24,1,5.08,5.08,0,0,0,.53,1.07,2.81,2.81,0,0,0,2.36,1,3.77,3.77,0,0,0,2.66-1,4.18,4.18,0,0,0,.94-1.35c.1-.19.22-.29.38-.29s.29.14.38.4A2,2,0,0,1,162.76,837.81ZM154.83,833l0,.9c0,.15.1.22.29.22a5,5,0,0,0,2-.6,3.85,3.85,0,0,0,1.31-1.11,5.2,5.2,0,0,0,.94-2.32l0-.44c0-1.31-.52-2-1.57-2a2.25,2.25,0,0,0-1.89,1A7,7,0,0,0,154.83,833Z"/><path class="cls-26" d="M176.83,826.14a.24.24,0,0,0,.07-.18.56.56,0,0,0-.07-.26,9.07,9.07,0,0,1-1.23-4.36,4.48,4.48,0,0,1,1.47-3.46,5.49,5.49,0,0,1,3.83-1.34,5.37,5.37,0,0,1,1.93.36,2.63,2.63,0,0,1,1.78,2.69q0,2.65-3.63,6a.22.22,0,0,0-.08.15,78.31,78.31,0,0,0,5.28,10.11,11.34,11.34,0,0,0,.58-3.67,3.48,3.48,0,0,0-.62-2,.38.38,0,0,1-.07-.22c0-.34.49-.51,1.49-.51a2.49,2.49,0,0,1,1.94.55,2.65,2.65,0,0,1,.46,1.74,11.6,11.6,0,0,1-2.07,6.77c1.18,1.69,2.13,2.6,2.83,2.72a.46.46,0,0,1,.35.42c0,.21-.17.38-.53.53a7.81,7.81,0,0,1-2.69.73,3.21,3.21,0,0,1-2.15-.59c-.17-.16-.44-.47-.83-.9a9.34,9.34,0,0,1-5,1.41,9.53,9.53,0,0,1-6.13-1.91,6.59,6.59,0,0,1-2.42-5.5q0-4.85,5.13-9Zm3.57,13.71a6.48,6.48,0,0,0,3-.69,66.49,66.49,0,0,1-3.38-6.48c-1.16-2.52-1.78-3.84-1.85-4s-.14-.18-.18-.18l-.22.11a7.58,7.58,0,0,0-2.22,5.78,6.07,6.07,0,0,0,1.22,3.87A4.33,4.33,0,0,0,180.4,839.85Zm-.8-16.77c0,.15.12.22.21.22a.42.42,0,0,0,.29-.14,4.45,4.45,0,0,0,1.64-3.2,1.36,1.36,0,0,0-1.47-1.53,1.24,1.24,0,0,0-1.07.55,2.67,2.67,0,0,0-.4,1.61A5.13,5.13,0,0,0,179.6,823.08Z"/><path class="cls-27" d="M204.69,826.1a130.74,130.74,0,0,0,.51,14.77c0,.58-.56,1.06-1.68,1.43a8.89,8.89,0,0,1-2.76.57c-.73,0-1.09-.11-1.09-.33a1.61,1.61,0,0,1,.11-.55q.69-1.51.69-12.29c0-6.79-.29-10.55-.87-11.31l-.15-.21a.58.58,0,0,1-.22-.46c0-.18.13-.33.4-.45a7.47,7.47,0,0,1,2-.66,11.05,11.05,0,0,1,2.52-.33c.76,0,1.13.17,1.13.51v.11Q204.8,820.68,204.69,826.1Z"/><path class="cls-28" d="M207.78,842.47a59.09,59.09,0,0,0,.65-9.42,46.61,46.61,0,0,0-.33-7.13c0-.31.37-.47,1.09-.47a2.16,2.16,0,0,1,2.22,1.27.18.18,0,0,0,.18.11.29.29,0,0,0,.22-.07,4.65,4.65,0,0,1,3.49-1.17,5.52,5.52,0,0,1,3.75,1.2,4.38,4.38,0,0,1,1.38,3.49q0,1.4-.24,3.93c-.15,1.7-.23,3-.23,3.78a7.23,7.23,0,0,0,1,4.26.56.56,0,0,1,.15.36c0,.32-.34.47-1,.47q-4.51,0-4.51-4a18.68,18.68,0,0,1,.69-4.25,18.5,18.5,0,0,0,.69-4.15c0-1.93-.8-2.9-2.4-2.9a2.2,2.2,0,0,0-1.76.69,2.69,2.69,0,0,0-.68,1.58c0,.59-.07,1.71-.07,3.36,0,2.52.09,4.72.26,6.58l.07.8c0,.68-.44,1.21-1.33,1.59a6.12,6.12,0,0,1-2.29.56C208.1,842.94,207.78,842.78,207.78,842.47Z"/><path class="cls-29" d="M221.74,828l.11-1.45q0-.33.51-.33h1.27l-.15-2.91v-.15c0-.55.43-1.09,1.28-1.6a4.58,4.58,0,0,1,2.32-.76c.22,0,.33.1.33.29v0c-.1.65-.19,2.34-.29,5.05a16.64,16.64,0,0,0,2-.07l.47-.07c.17,0,.25.14.25.43a2.31,2.31,0,0,1-.4,1.11c-.26.45-.55.69-.87.71h-1.53c0,.83,0,2.21,0,4.16s0,3.56,0,4.82.08,2.22.13,2.86.1,1.16.16,1.54.11.67.15.84a1.59,1.59,0,0,1,.05.33c0,.24-.15.37-.47.4a10.55,10.55,0,0,1-2.82-.4c-.93-.27-1.4-.73-1.4-1.39a105.66,105.66,0,0,0,.77-13.12,11,11,0,0,0-1.49.07h0C221.92,828.43,221.79,828.3,221.74,828Z"/><path class="cls-30" d="M241.45,837.81a5,5,0,0,1-.57,2.42,4.33,4.33,0,0,1-1.27,1.53,6.3,6.3,0,0,1-1.65.78,8,8,0,0,1-2.29.36,5,5,0,0,1-4.51-2.29,10.7,10.7,0,0,1-1.46-5.83,11.28,11.28,0,0,1,1.8-6.31,6,6,0,0,1,5.4-2.77c2.18,0,3.66.77,4.44,2.29a3.59,3.59,0,0,1,.47,1.66,8,8,0,0,1-.07,1.23,5.74,5.74,0,0,1-.51,1.37,6,6,0,0,1-1.16,1.63,7.24,7.24,0,0,1-2.29,1.39,13.44,13.44,0,0,1-3.68.87c-.19,0-.29.08-.29.25a3.09,3.09,0,0,0,.24,1,5.08,5.08,0,0,0,.53,1.07,2.81,2.81,0,0,0,2.36,1,3.73,3.73,0,0,0,2.65-1,4.05,4.05,0,0,0,.95-1.35c.1-.19.22-.29.38-.29s.29.14.38.4A2,2,0,0,1,241.45,837.81ZM233.52,833l0,.9c0,.15.09.22.29.22a5,5,0,0,0,2-.6,3.67,3.67,0,0,0,1.31-1.11,5.12,5.12,0,0,0,.95-2.32l0-.44c0-1.31-.53-2-1.57-2a2.25,2.25,0,0,0-1.89,1A7,7,0,0,0,233.52,833Z"/><path class="cls-31" d="M245.85,827.54a7.2,7.2,0,0,1,4.62-1.95,6,6,0,0,1,2.43.55.34.34,0,0,0,.22-.07,3.74,3.74,0,0,1,2.76-1c.3,0,.44.13.44.4a2.36,2.36,0,0,1-.07.33c-.05.19-.11.48-.18.85a12.26,12.26,0,0,0-.19,1.37,39.64,39.64,0,0,0-.27,4.58c0,1.67,0,3.34,0,5l.11,7.63a9.66,9.66,0,0,1-1.89,6.11,6.11,6.11,0,0,1-2.31,1.71,8.32,8.32,0,0,1-3.62.73c-.31-.2-.47-.39-.47-.58s.13-.36.4-.48q2.3-1,3.27-5a53.24,53.24,0,0,0,1-12l-.08-5.09-.11-2.47c0-.22-.33-.38-1-.47a3,3,0,0,0-2.2.85,4.38,4.38,0,0,0-1.22,2.24,15.3,15.3,0,0,0-.58,3.83,7.3,7.3,0,0,0,.52,2.86,1.86,1.86,0,0,0,1.84,1.23,1.49,1.49,0,0,0,.67-.14,1.31,1.31,0,0,1,.42-.15c.24,0,.36.25.36.73a5.45,5.45,0,0,1-.1,1.18,3.69,3.69,0,0,1-.44,1,3.06,3.06,0,0,1-2.84,1.2,3.25,3.25,0,0,1-3-1.53,7.22,7.22,0,0,1-1.09-2.8q-.21-1.85-.21-2.43c0-.39,0-.7,0-.93s.08-.69.19-1.38a14.1,14.1,0,0,1,.43-2,12.31,12.31,0,0,1,.86-2.08A7.72,7.72,0,0,1,245.85,827.54Z"/><path class="cls-32" d="M269.05,832.47l.14,1.27c0,.46-.43.69-1.31.69-1.77,0-2.65-.67-2.65-2a4.84,4.84,0,0,1,.25-1.31,5.12,5.12,0,0,0,.26-1.45,1.69,1.69,0,0,0-.36-1.08,1.3,1.3,0,0,0-1.06-.45,1.6,1.6,0,0,0-1.18.49,2,2,0,0,0-.6,1l-.15.51a23,23,0,0,0-.22,3.76c0,1.76,0,3.14.08,4.15s.09,1.7.14,2.07.08.6.08.67a1.69,1.69,0,0,1-1.13,1.48,5.09,5.09,0,0,1-2.26.56c-.75,0-1.12-.16-1.12-.47l.18-1.13a53.81,53.81,0,0,0,.51-8.25,41.18,41.18,0,0,0-.37-6.91c0-.29.26-.44.77-.44a2.62,2.62,0,0,1,2.62,1.35c0,.09.06.14.12.14a1.44,1.44,0,0,0,.49-.33,4.38,4.38,0,0,1,2.84-1,5.69,5.69,0,0,1,2,.4,3.37,3.37,0,0,1,2.07,3.49Z"/><path class="cls-33" d="M282.17,831.3,282.1,836q0,4.83,1.06,5.82a.45.45,0,0,1,.14.32c0,.37-.78.55-2.34.55s-2.4-.46-2.49-1.38a13,13,0,0,1,0-1.35l.14-5.82c0-.17-.09-.25-.29-.25a6,6,0,0,0-3.27,1,2.9,2.9,0,0,0-1.53,2.51,2.08,2.08,0,0,0,.44,1.34,1.31,1.31,0,0,0,1.07.55,2,2,0,0,0,1.06-.25l.49-.3c.41.05.62.48.62,1.3a2.27,2.27,0,0,1-1.13,2,4.19,4.19,0,0,1-2.36.74,4.79,4.79,0,0,1-2.13-.43,3.36,3.36,0,0,1-1.29-1,4.54,4.54,0,0,1-.91-2.7,5.36,5.36,0,0,1,1.6-4.07,9.12,9.12,0,0,1,4.11-2.18q3.3-.66,3.45-1.2a5.86,5.86,0,0,0,.11-1.34,1.72,1.72,0,0,0-2-1.93,2.25,2.25,0,0,0-1.49.53,1.62,1.62,0,0,0-.66,1.32l.22.88c-.05.41-.48.65-1.31.72l-.4,0a2.55,2.55,0,0,1-1.73-.55,1.82,1.82,0,0,1-.63-1.45,2.68,2.68,0,0,1,.38-1.29,3.4,3.4,0,0,1,1-1.15,5.71,5.71,0,0,1,1.8-.78,8.61,8.61,0,0,1,2.35-.34,15.56,15.56,0,0,1,1.74.07,13.86,13.86,0,0,1,1.69.34,3.67,3.67,0,0,1,1.79,1,2.64,2.64,0,0,1,.76,1.62C282.16,829.42,282.17,830.24,282.17,831.3Z"/><path class="cls-34" d="M283.85,828l.11-1.45q0-.33.51-.33h1.27l-.15-2.91v-.15c0-.55.43-1.09,1.27-1.6a4.61,4.61,0,0,1,2.33-.76c.22,0,.33.1.33.29v0c-.1.65-.19,2.34-.29,5.05a16.44,16.44,0,0,0,2-.07l.48-.07c.17,0,.25.14.25.43a2.31,2.31,0,0,1-.4,1.11c-.27.45-.56.69-.87.71h-1.53c0,.83,0,2.21,0,4.16s0,3.56,0,4.82.08,2.22.13,2.86.1,1.16.16,1.54.11.67.15.84a2.94,2.94,0,0,1,.05.33c0,.24-.16.37-.47.4a10.44,10.44,0,0,1-2.82-.4c-.93-.27-1.4-.73-1.4-1.39a105.73,105.73,0,0,0,.76-13.12,11.24,11.24,0,0,0-1.49.07h0C284,828.43,283.9,828.3,283.85,828Z"/><path class="cls-35" d="M293.37,841.12l.4-8.47a8.44,8.44,0,0,0-.69-4.11,1.51,1.51,0,0,0-.51-.55.27.27,0,0,1-.21-.29c0-.43.61-.86,1.85-1.27a9.93,9.93,0,0,1,2.71-.62c.57,0,.87.15.89.44,0,.48-.07,1.86-.2,4.13s-.2,4.64-.2,7.14a14.38,14.38,0,0,0,.44,4.66.72.72,0,0,1,.11.36c0,.31-.47.47-1.39.47a6.24,6.24,0,0,1-2.83-.73C293.5,842.16,293.37,841.78,293.37,841.12Zm2.91-18.36-.87,0c-.65,0-1.08.16-1.27.47a.2.2,0,0,1-.18.11q-.48,0-.48-1.62a2.93,2.93,0,0,1,.49-2,2.6,2.6,0,0,1,1.71-.44,2.42,2.42,0,0,1,1.66.42,1.89,1.89,0,0,1,.43,1.4,2.22,2.22,0,0,1-.32,1.37A1.51,1.51,0,0,1,296.28,822.76Z"/><path class="cls-36" d="M308.37,826.5a6.89,6.89,0,0,1,3.08-.76c1,0,1.52,1,1.52,3.16a14,14,0,0,1-.85,4.73,20.83,20.83,0,0,1-6.86,9.31,1.78,1.78,0,0,1-.76.29c-.17,0-.34-.18-.53-.55a18.53,18.53,0,0,1-.83-2.4q-.57-1.85-.93-3.3l-.33-1.5a43.61,43.61,0,0,0-1.42-5.1,7.37,7.37,0,0,0-1-2.2l-.37-.33c-.24-.12-.36-.27-.36-.44l.18-.33a5.71,5.71,0,0,1,1.58-.89,6.49,6.49,0,0,1,2.46-.45c.41,0,.66.23.76.69a30.32,30.32,0,0,1,.95,3.93q.39,2.25,1.07,5.09c.45,1.89.82,2.85,1.11,2.87a.73.73,0,0,0,.49-.33c.18-.21.4-.51.65-.87a10.05,10.05,0,0,0,.95-2.11,8.23,8.23,0,0,0,.56-2.67,12.31,12.31,0,0,0-.09-1.71,3.56,3.56,0,0,0-.63-1.4,2,2,0,0,0-1.24-.93q-.69-.12-.69-.45C306.83,827.46,307.34,827,308.37,826.5Z"/><path class="cls-37" d="M325.63,837.81a5,5,0,0,1-.57,2.42,4.33,4.33,0,0,1-1.27,1.53,6.3,6.3,0,0,1-1.65.78,8,8,0,0,1-2.29.36,5,5,0,0,1-4.51-2.29,10.7,10.7,0,0,1-1.46-5.83,11.28,11.28,0,0,1,1.8-6.31,6,6,0,0,1,5.4-2.77c2.18,0,3.66.77,4.44,2.29a3.59,3.59,0,0,1,.47,1.66,8,8,0,0,1-.07,1.23,5.74,5.74,0,0,1-.51,1.37,6,6,0,0,1-1.16,1.63,7.19,7.19,0,0,1-2.3,1.39,13.28,13.28,0,0,1-3.67.87c-.19,0-.29.08-.29.25a3.09,3.09,0,0,0,.24,1,5.08,5.08,0,0,0,.52,1.07,2.85,2.85,0,0,0,2.37,1,3.73,3.73,0,0,0,2.65-1,4.05,4.05,0,0,0,1-1.35c.1-.19.22-.29.38-.29s.28.14.38.4A2,2,0,0,1,325.63,837.81ZM317.7,833l0,.9c0,.15.09.22.29.22a5,5,0,0,0,2-.6,3.67,3.67,0,0,0,1.31-1.11,5.24,5.24,0,0,0,.95-2.32l0-.44c0-1.31-.52-2-1.56-2a2.25,2.25,0,0,0-1.89,1A7,7,0,0,0,317.7,833Z"/><path class="cls-38" d="M335.05,828.07l-.19-6.88a7.46,7.46,0,0,0-.36-2.58,9.51,9.51,0,0,1-.36-1c0-.53.81-.94,2.45-1.23a23.4,23.4,0,0,1,3.75-.44c.86,0,1.32.21,1.4.62a109.34,109.34,0,0,0,3.85,14.18c.12.29.25.44.38.44s.25-.11.35-.33q2.43-6.87,4.29-13.6a1.17,1.17,0,0,1,.73-.67,10,10,0,0,1,2-.46,19.78,19.78,0,0,1,2.86-.22c.94,0,1.42.2,1.42.59,0,0,0,.21-.11.56s-.15.78-.22,1.29-.16,1.13-.26,1.86q-.32,2.51-.41,5.76c-.06,2.17-.09,4.34-.09,6.53l.07,3.81A14.08,14.08,0,0,0,357,840a9.54,9.54,0,0,1,.35,1.27c0,.11-.09.24-.26.39a5.4,5.4,0,0,1-3.41.91c-1,0-1.52-.33-1.64-1a8.66,8.66,0,0,1-.11-1.61c0-.74.07-3,.22-6.82s.22-6.58.22-8.31-.1-2.6-.29-2.6c0,0,0,0,0,0s0,0-.11.05a4.14,4.14,0,0,0-.56,1.13q-.46,1.09-1.8,5.38t-2.44,8q-1.09,3.72-1.2,4a1.52,1.52,0,0,1-1.53,1,1.09,1.09,0,0,1-.87-.4q-1.16-5.38-4.14-15.38l-1-3.31q-.07-.18-.15-.18c-.12,0-.2.08-.25.25-.1,1.58-.15,4.67-.15,9.29s.17,7.53.51,8.75a.41.41,0,0,1,0,.21q0,.76-1.2,1.11a7.93,7.93,0,0,1-2.17.35c-.64,0-1-.15-1-.44,0,0,.06-.22.18-.58a23.91,23.91,0,0,0,.71-5.38Q335,832.62,335.05,828.07Z"/><path class="cls-39" d="M370.83,837.81a5,5,0,0,1-.57,2.42,4.33,4.33,0,0,1-1.27,1.53,6.3,6.3,0,0,1-1.65.78,8,8,0,0,1-2.29.36,5,5,0,0,1-4.51-2.29,10.7,10.7,0,0,1-1.46-5.83,11.28,11.28,0,0,1,1.8-6.31,6,6,0,0,1,5.4-2.77c2.18,0,3.66.77,4.44,2.29a3.59,3.59,0,0,1,.47,1.66,8,8,0,0,1-.07,1.23,5.74,5.74,0,0,1-.51,1.37,6,6,0,0,1-1.16,1.63,7.19,7.19,0,0,1-2.3,1.39,13.28,13.28,0,0,1-3.67.87c-.19,0-.29.08-.29.25a3.09,3.09,0,0,0,.24,1,5.08,5.08,0,0,0,.52,1.07,2.85,2.85,0,0,0,2.37,1,3.74,3.74,0,0,0,2.65-1,4.05,4.05,0,0,0,.95-1.35.43.43,0,0,1,.38-.29c.16,0,.28.14.38.4A2,2,0,0,1,370.83,837.81ZM362.9,833l0,.9c0,.15.09.22.29.22a5,5,0,0,0,2-.6,3.67,3.67,0,0,0,1.31-1.11,5.24,5.24,0,0,0,.95-2.32l0-.44c0-1.31-.52-2-1.56-2a2.23,2.23,0,0,0-1.89,1A7,7,0,0,0,362.9,833Z"/><path class="cls-40" d="M380.1,825.88a3.91,3.91,0,0,1,1.18.17l.56.16.22-.18-.14-4a4.73,4.73,0,0,0-.44-1.75,2.77,2.77,0,0,0-.65-.94l-.33-.19a.38.38,0,0,1-.22-.32c0-.37.57-.79,1.69-1.28a7.38,7.38,0,0,1,2.64-.72c.63,0,1,.13,1,.4a39.47,39.47,0,0,1,.18,4.71q0,3.46-.17,6.81c-.1,2.23-.16,4.76-.16,7.59s.18,4.6.55,5.32a1,1,0,0,1,.14.48q0,.54-1.56.54c-2,0-3-.47-3-1.42a15.19,15.19,0,0,1-.08-1.8c0-.81.08-2.32.24-4.54s.24-3.93.24-5.13a1.59,1.59,0,0,0-1.8-1.8,3,3,0,0,0-2.75,2.11,10.21,10.21,0,0,0-.94,4.22q0,4.47,2.25,4.47a1.59,1.59,0,0,0,.64-.13,1.79,1.79,0,0,1,.38-.13c.19,0,.34.13.45.37a1.73,1.73,0,0,1,.17.73,2.69,2.69,0,0,1-1,2.09,3.55,3.55,0,0,1-2.41.85,3.59,3.59,0,0,1-3.29-1.91,9.29,9.29,0,0,1-1.1-4.74,13.58,13.58,0,0,1,1.7-6.69,6.9,6.9,0,0,1,2.37-2.46A6.24,6.24,0,0,1,380.1,825.88Z"/><path class="cls-41" d="M388.64,841.12l.4-8.47a8.44,8.44,0,0,0-.69-4.11,1.51,1.51,0,0,0-.51-.55.27.27,0,0,1-.21-.29c0-.43.61-.86,1.85-1.27a9.93,9.93,0,0,1,2.71-.62c.57,0,.87.15.89.44,0,.48-.07,1.86-.2,4.13s-.2,4.64-.2,7.14a14.38,14.38,0,0,0,.44,4.66.72.72,0,0,1,.11.36c0,.31-.47.47-1.39.47a6.24,6.24,0,0,1-2.83-.73C388.77,842.16,388.64,841.78,388.64,841.12Zm2.91-18.36-.87,0c-.65,0-1.08.16-1.27.47a.2.2,0,0,1-.18.11q-.48,0-.48-1.62a2.93,2.93,0,0,1,.49-2,2.6,2.6,0,0,1,1.71-.44,2.42,2.42,0,0,1,1.66.42A1.89,1.89,0,0,1,393,821a2.22,2.22,0,0,1-.32,1.37A1.51,1.51,0,0,1,391.55,822.76Z"/><path class="cls-42" d="M407.33,838a4.28,4.28,0,0,1-1.65,3.44,6,6,0,0,1-3.95,1.36,5.82,5.82,0,0,1-4.91-2,8.72,8.72,0,0,1-1.56-5.47,12.8,12.8,0,0,1,1.64-6.51,5.73,5.73,0,0,1,2.29-2.29,7,7,0,0,1,3.49-.84,4.56,4.56,0,0,1,4.25,2,3.69,3.69,0,0,1,.51,2,2.85,2.85,0,0,1-1.45,2.62,2.22,2.22,0,0,1-1.07.33,4.27,4.27,0,0,1-.8-.06,1.9,1.9,0,0,1-.82-.49,1.49,1.49,0,0,1-.51-1.2c0-.26.23-.48.62-.65a1.26,1.26,0,0,0,.54-1.17q0-1.41-1.74-1.41a2,2,0,0,0-1,.38,3.34,3.34,0,0,0-1,1,6.58,6.58,0,0,0-.74,1.89,9.19,9.19,0,0,0-.35,2.47,12.86,12.86,0,0,0,.09,1.78,11.76,11.76,0,0,0,.4,1.64,3.24,3.24,0,0,0,1.16,1.69,3.38,3.38,0,0,0,2.13.66,3.54,3.54,0,0,0,2.69-1.28,3.9,3.9,0,0,0,.77-1.23c.09-.2.21-.29.36-.29s.38.2.49.6A4.08,4.08,0,0,1,407.33,838Z"/><path class="cls-43" d="M410.1,841.12l.4-8.47a8.44,8.44,0,0,0-.69-4.11,1.71,1.71,0,0,0-.51-.55.27.27,0,0,1-.22-.29c0-.43.62-.86,1.85-1.27a9.93,9.93,0,0,1,2.71-.62c.57,0,.87.15.89.44,0,.48-.06,1.86-.2,4.13s-.2,4.64-.2,7.14a14.38,14.38,0,0,0,.44,4.66.72.72,0,0,1,.11.36c0,.31-.46.47-1.38.47a6.28,6.28,0,0,1-2.84-.73C410.22,842.16,410.1,841.78,410.1,841.12ZM413,822.76l-.88,0a1.41,1.41,0,0,0-1.27.47.2.2,0,0,1-.18.11c-.32,0-.47-.54-.47-1.62a2.88,2.88,0,0,1,.49-2,2.58,2.58,0,0,1,1.71-.44,2.41,2.41,0,0,1,1.65.42,1.89,1.89,0,0,1,.44,1.4,2.14,2.14,0,0,1-.33,1.37A1.5,1.5,0,0,1,413,822.76Z"/><path class="cls-44" d="M416.9,842.47a59.09,59.09,0,0,0,.65-9.42,46.61,46.61,0,0,0-.33-7.13c0-.31.37-.47,1.1-.47a2.15,2.15,0,0,1,2.21,1.27.18.18,0,0,0,.19.11.28.28,0,0,0,.21-.07,4.65,4.65,0,0,1,3.49-1.17,5.52,5.52,0,0,1,3.75,1.2,4.38,4.38,0,0,1,1.38,3.49c0,.93-.08,2.24-.23,3.93s-.24,3-.24,3.78a7.23,7.23,0,0,0,1,4.26.56.56,0,0,1,.15.36c0,.32-.34.47-1,.47q-4.51,0-4.51-4a18.68,18.68,0,0,1,.69-4.25,18.5,18.5,0,0,0,.69-4.15c0-1.93-.8-2.9-2.4-2.9a2.2,2.2,0,0,0-1.76.69,2.69,2.69,0,0,0-.68,1.58c0,.59-.07,1.71-.07,3.36,0,2.52.09,4.72.26,6.58l.07.8c0,.68-.44,1.21-1.33,1.59a6.12,6.12,0,0,1-2.29.56C417.22,842.94,416.9,842.78,416.9,842.47Z"/><path class="cls-45" d="M442.79,837.81a5,5,0,0,1-.57,2.42,4.33,4.33,0,0,1-1.27,1.53,6.3,6.3,0,0,1-1.65.78,8,8,0,0,1-2.29.36,5,5,0,0,1-4.51-2.29,10.7,10.7,0,0,1-1.46-5.83,11.28,11.28,0,0,1,1.8-6.31,6,6,0,0,1,5.4-2.77c2.18,0,3.66.77,4.44,2.29a3.59,3.59,0,0,1,.47,1.66,8,8,0,0,1-.07,1.23,5.74,5.74,0,0,1-.51,1.37,6,6,0,0,1-1.16,1.63,7.19,7.19,0,0,1-2.3,1.39,13.28,13.28,0,0,1-3.67.87c-.19,0-.29.08-.29.25a3.09,3.09,0,0,0,.24,1,5.08,5.08,0,0,0,.52,1.07,2.85,2.85,0,0,0,2.37,1,3.73,3.73,0,0,0,2.65-1,4.05,4.05,0,0,0,.95-1.35.43.43,0,0,1,.38-.29c.16,0,.28.14.38.4A2,2,0,0,1,442.79,837.81ZM434.86,833l0,.9c0,.15.09.22.29.22a5,5,0,0,0,2-.6,3.67,3.67,0,0,0,1.31-1.11,5.24,5.24,0,0,0,1-2.32l0-.44c0-1.31-.52-2-1.56-2a2.24,2.24,0,0,0-1.89,1A7,7,0,0,0,434.86,833Z"/></g></g></svg>