<svg xmlns="http://www.w3.org/2000/svg" viewBox="0 0 198.48 224.51"><defs><style>.cls-1{fill:#9ebf54;}.cls-2{fill:#0f5fa6;}.cls-3{fill:#9ac458;}.cls-4{fill:#e96767;}.cls-5{fill:#145da6;}</style></defs><title>Seha Maghreb</title><g id="Calque_2" data-name="Calque 2"><g id="Calque_1-2" data-name="Calque 1"><path class="cls-1" d="M180.57,157a3.87,3.87,0,0,0-1.25-.16,3.11,3.11,0,0,0-2.94,1.71q-.63,1.08-2.49,4.5t-4.5,7.91q-2.64,4.5-5.51,9.55t-5.35,9.23q-2.49,4.2-4.27,6.91c-1.19,1.81-1.89,2.71-2.09,2.71s-.34-.72-.39-2.17-.08-3.52-.08-6.21,0-5.87.08-9.54.08-7.63.08-11.87q0-7.61-.16-15.91t-.62-16.37q-.47-8.07-1.24-15.37a102,102,0,0,0-2.1-12.8,30.36,30.36,0,0,0-3.33-8.77q-2-3.26-4.66-3.26c-1.45,0-2.82,1.3-4.11,3.88a62,62,0,0,0-3.8,10.32q-1.87,6.45-3.65,14.51t-3.73,16.53q-1.93,8.46-4,16.61a141.24,141.24,0,0,1-4.5,14.51,45.15,45.15,0,0,1-5.2,10.24q-2.79,3.89-6,3.88c-1.76,0-3.37-1.48-4.81-4.42a63.38,63.38,0,0,1-4-11.41q-1.86-7-3.41-15.6t-3-17.15q-1.39-8.53-2.64-15.83t-2.48-11.79c-.42-1.55-.91-3.16-1.48-4.81A25.24,25.24,0,0,0,80.78,102a13.92,13.92,0,0,0-2.87-3.49,5.65,5.65,0,0,0-2.44-1.23c-.61,5-1.17,9.92-1.45,14.88.09.72.18,1.46.28,2.22q.67,5.47,1.36,12,.93,8.92,2.25,18.31T81.09,163a103.63,103.63,0,0,0,4.58,16,36.62,36.62,0,0,0,6.51,11.32,11.61,11.61,0,0,0,8.93,4.27,17.64,17.64,0,0,0,12.41-4.89,41.6,41.6,0,0,0,9-12.57A92.65,92.65,0,0,0,128.73,160q2.49-9.47,4.19-18.54t3-16.84q1.24-7.75,2.33-11.95a143.51,143.51,0,0,1,1.24,15.44q.31,9.09.54,19.09t.55,19.94q.3,9.94.93,17.85.61,7.6,1.39,12a36,36,0,0,0,1.71,6.75,5.75,5.75,0,0,0,2,2.95,4.64,4.64,0,0,0,2.33.62,7,7,0,0,0,3-.78,16.43,16.43,0,0,0,4.12-3.26,59,59,0,0,0,5.82-7.14q3.33-4.65,8-12.57,4-7,6.52-11.48t3.72-7.22q1.25-2.72,2.17-5A4,4,0,0,0,180.57,157Z" transform="translate(0 -25.53)"/><path class="cls-2" d="M129.6,84a3,3,0,0,1,1.7,2.79,4.83,4.83,0,0,1-.31,1.4,148.72,148.72,0,0,1-13.42,22.89,62.53,62.53,0,0,1-13.81,14,45,45,0,0,1-15.29,7.14,72,72,0,0,1-17.54,2q-10.55,0-16.52-4a24.89,24.89,0,0,1-9-10.4,46.56,46.56,0,0,1-4-14.74q-.93-8.3-1.09-17.3a3.77,3.77,0,0,1,.72-2.25,3.23,3.23,0,0,1,2-1.32,5.19,5.19,0,0,1,2.46.62,2,2,0,0,1,1.19,1.86c0,.83,0,1.6-.07,2.33s-.08,1.5-.08,2.33a91,91,0,0,0,.85,12.1,50.92,50.92,0,0,0,2.94,11.72A24.71,24.71,0,0,0,56,124.15a12.46,12.46,0,0,0,9.12,3.49,20,20,0,0,0,8.2-1.78,24.61,24.61,0,0,0,7.26-5,25.07,25.07,0,0,0,5.26-7.51,22.59,22.59,0,0,0,2-9.61,21.68,21.68,0,0,0-2.79-11.23A37.33,37.33,0,0,0,78,84a112.26,112.26,0,0,0-9.16-7.44,88.33,88.33,0,0,1-9.16-7.67,36.93,36.93,0,0,1-7.06-9.38,26.45,26.45,0,0,1-2.79-12.55,24.75,24.75,0,0,1,1.39-8.29A21.89,21.89,0,0,1,55,31.8a18.22,18.22,0,0,1,5.74-4.57,15.38,15.38,0,0,1,7.06-1.7,18.46,18.46,0,0,1,7.45,1.71,23.86,23.86,0,0,1,7.06,4.81,25.4,25.4,0,0,1,5.28,7.68,24.23,24.23,0,0,1,2.09,10.16c0,.94-.08,2.15-.23,3.65A31,31,0,0,1,88.7,58a13.4,13.4,0,0,1-1.55,3.81,3,3,0,0,1-2.56,1.63,3.24,3.24,0,0,1-2.25-.94,2.87,2.87,0,0,1-1-2.17,5,5,0,0,1,.31-1.24,16.29,16.29,0,0,0,1.48-4.34,24,24,0,0,0,.39-4,21.61,21.61,0,0,0-1.25-7.45,20.46,20.46,0,0,0-3.18-5.82,15.78,15.78,0,0,0-4.34-3.8A9.45,9.45,0,0,0,70,32.2c-2.38,0-4.47,1.17-6.28,3.49A14.39,14.39,0,0,0,61,44.77a26.66,26.66,0,0,0,2.33,10.09,33.11,33.11,0,0,0,7.76,10.86,47.21,47.21,0,0,0,9,7,67.14,67.14,0,0,1,9.54,7,34.88,34.88,0,0,1,7.53,9.54q3.11,5.67,3.11,14.67A28.93,28.93,0,0,1,98,115.15a31.45,31.45,0,0,1-6.45,9.7,40.91,40.91,0,0,0,8.54-4.65,48.41,48.41,0,0,0,8.3-7.61,89.88,89.88,0,0,0,8.31-11.25,170.94,170.94,0,0,0,8.69-15.75,3.12,3.12,0,0,1,3-1.71A3.85,3.85,0,0,1,129.6,84Z" transform="translate(0 -25.53)"/><path class="cls-1" d="M74.1,97.13q-2,0-3.88,4.58a79.47,79.47,0,0,0-3.56,12.11Q64.95,121.34,63.4,131T60.53,150.6q-1.32,10-2.33,19.63t-1.79,17.15q-.77,7.53-1.55,16.68a4.4,4.4,0,0,0,.93,2.33,2.68,2.68,0,0,0,2.18.93A2.41,2.41,0,0,0,60.14,206a15.42,15.42,0,0,0,1.32-4.81q.54-3.49,1.16-9.62t1.71-15.76q1.08-9.62,2.87-23.12t4.58-32c.31-2.17.64-4.09,1-5.74s.69-3.16,1-4.5c.08.55.15,1.12.23,1.7.28-5,.84-9.92,1.45-14.88A6.12,6.12,0,0,0,74.1,97.13Z" transform="translate(0 -25.53)"/><path class="cls-3" d="M65.88,82.6c-1.06,7-4.38,11.34-9.7,14.29-1.7.94-2.69,1.29-3.19-1.38-2.26-12.14-7.21-17-19-19.23,4.75-5.42,12.17-5.48,16.72-.1a22.92,22.92,0,0,1,4.65,10.47c.56,2.76,1.83,2.69,3.83,1.57C61.5,86.93,63.27,85,65.88,82.6Z" transform="translate(0 -25.53)"/><path class="cls-4" d="M59.57,75.08a2.92,2.92,0,0,1,3,3.11,2.85,2.85,0,0,1-3.08,3c-2.12,0-3.34-1.21-3.23-3.26C56.33,76.12,57.58,75.11,59.57,75.08Z" transform="translate(0 -25.53)"/><path class="cls-2" d="M39.93,233.27c.21,1.6,1.6,2.76,3.85,2.76a5.36,5.36,0,0,0,3.47-1.21l2,2a7.92,7.92,0,0,1-5.56,2.1c-4.46,0-7.11-2.75-7.11-6.9a6.48,6.48,0,0,1,6.88-6.77c4.32,0,7,2.68,6.53,8Zm7-2.64c-.21-1.68-1.52-2.52-3.36-2.52A3.48,3.48,0,0,0,40,230.63Z" transform="translate(0 -25.53)"/><path class="cls-2" d="M55.43,220.24v7.18a4.78,4.78,0,0,1,4-1.94c3.67,0,5.3,2.5,5.3,6.3v6.82h-3.2v-6.8c0-2.36-1.23-3.35-2.94-3.35a3.31,3.31,0,0,0-3.2,3.54v6.61h-3.2V220.24Z" transform="translate(0 -25.53)"/><path class="cls-2" d="M77.73,225.67h3.06V238.6h-3l-.16-1.89c-.73,1.52-2.75,2.26-4.2,2.28-3.83,0-6.66-2.33-6.66-6.87s3-6.79,6.74-6.77a4.76,4.76,0,0,1,4.12,2.1ZM70,232.12a3.7,3.7,0,0,0,3.83,3.93c5,0,5-7.84,0-7.84A3.68,3.68,0,0,0,70,232.12Z" transform="translate(0 -25.53)"/><path class="cls-2" d="M105,225.3l-6,8h-.68l-5.85-8v13.36H89.06V220.26h4l5.75,7.9,5.74-7.9h4v18.37H105Z" transform="translate(0 -25.53)"/><path class="cls-2" d="M122,225.67h3.07V238.6h-3l-.16-1.89c-.73,1.52-2.75,2.26-4.2,2.28-3.82,0-6.66-2.33-6.66-6.87s3-6.79,6.74-6.77a4.76,4.76,0,0,1,4.12,2.1Zm-7.77,6.45a3.7,3.7,0,0,0,3.83,3.93c5,0,5-7.84,0-7.84A3.68,3.68,0,0,0,114.26,232.12Z" transform="translate(0 -25.53)"/><path class="cls-2" d="M138,224.36l2.36,1.78L138.87,228a5.51,5.51,0,0,1,1.36,3.82,5.12,5.12,0,0,1-2.73,4.83,4.36,4.36,0,0,1,2.68,4.28c0,3.56-2.73,5.77-6.48,5.77s-6.56-2.28-6.56-5.77h3.18c0,1.68,1.54,2.78,3.38,2.78s3.28-1,3.28-2.78-1.68-2.6-3.28-2.6c-4,0-6.56-2.47-6.56-6.51a6.31,6.31,0,0,1,6.56-6.55,5.16,5.16,0,0,1,3,.73Zm-7.63,7.44a3.38,3.38,0,1,0,6.74,0,3.38,3.38,0,1,0-6.74,0Z" transform="translate(0 -25.53)"/><path class="cls-2" d="M145.74,220.24v7.18a4.78,4.78,0,0,1,4-1.94c3.67,0,5.3,2.5,5.3,6.3v6.82h-3.2v-6.8c0-2.36-1.24-3.35-2.94-3.35a3.31,3.31,0,0,0-3.2,3.54v6.61h-3.2V220.24Z" transform="translate(0 -25.53)"/><path class="cls-2" d="M160.74,225.67l.24,1.49a3.79,3.79,0,0,1,3.64-1.83,4.87,4.87,0,0,1,3.33,1.23l-1.44,2.78a3.19,3.19,0,0,0-2.31-.84,3,3,0,0,0-3.22,3.28v6.82h-3.2V225.67Z" transform="translate(0 -25.53)"/><path class="cls-2" d="M171.89,233.27c.21,1.6,1.6,2.76,3.85,2.76a5.38,5.38,0,0,0,3.47-1.21l2,2a7.92,7.92,0,0,1-5.56,2.1c-4.46,0-7.11-2.75-7.11-6.9a6.48,6.48,0,0,1,6.88-6.77c4.32,0,7,2.68,6.53,8Zm7-2.64c-.21-1.68-1.52-2.52-3.36-2.52a3.48,3.48,0,0,0-3.62,2.52Z" transform="translate(0 -25.53)"/><path class="cls-2" d="M187.65,220.26v7.16c.76-1.33,2.89-2.07,4.25-2.07,3.78,0,6.58,2.31,6.58,6.77a6.34,6.34,0,0,1-6.66,6.77,4.73,4.73,0,0,1-4.17-2.07l-.21,1.78h-3V220.26Zm.21,11.86a3.72,3.72,0,1,0,7.43,0,3.58,3.58,0,0,0-3.68-3.78A3.69,3.69,0,0,0,187.86,232.12Z" transform="translate(0 -25.53)"/><path class="cls-5" d="M15.33,249.36c5.74-1.72,10.21-4.55,11.19-10.86A17.17,17.17,0,0,0,24.91,229c-2.48-5.71-5.1-11.36-7.69-17-2.07-4.52-2.53-8.93.74-13.14a6.63,6.63,0,0,1,.74-.62c-.5,7.73,3.28,13.54,7.43,19.2a49.33,49.33,0,0,1,5.73,9c5.26,11.89-.32,21.68-13.27,23.08C17.6,249.65,16.44,250.71,15.33,249.36Z" transform="translate(0 -25.53)"/><path class="cls-3" d="M21.24,237.09a12.14,12.14,0,0,1-6.46,9.52c-1.13.62-1.8.86-2.13-.92-1.5-8.09-4.8-11.34-12.65-12.82,3.16-3.61,8.11-3.65,11.14-.06a15.38,15.38,0,0,1,3.1,7c.37,1.84,1.22,1.8,2.55,1.05A26,26,0,0,0,21.24,237.09Z" transform="translate(0 -25.53)"/><path class="cls-3" d="M30.67,209.71c-.27,1.42-.28,3.11-2.17,3.48-1.69.33-2.54-.9-3.25-2.19a1.6,1.6,0,0,1-.1-.23c-.7-2-.95-3.92.45-5.67a1.91,1.91,0,0,1,2.53-.34C30,205.83,30.42,207.71,30.67,209.71Z" transform="translate(0 -25.53)"/><path class="cls-4" d="M17,232.08a2,2,0,0,1,2,2.07,1.9,1.9,0,0,1-2.06,2A1.92,1.92,0,0,1,14.82,234,2,2,0,0,1,17,232.08Z" transform="translate(0 -25.53)"/><path class="cls-3" d="M79,43.51c-.42,2.13-.44,4.67-3.26,5.22-2.54.5-3.82-1.34-4.89-3.28a2.13,2.13,0,0,1-.14-.35c-1-2.94-1.44-5.87.67-8.51a2.87,2.87,0,0,1,3.8-.5C78,37.69,78.66,40.51,79,43.51Z" transform="translate(0 -25.53)"/><path class="cls-4" d="M168,160.51c-.42,2.13-.44,4.67-3.26,5.22-2.54.5-3.82-1.34-4.89-3.28a2.13,2.13,0,0,1-.14-.35c-1.05-2.94-1.44-5.87.67-8.51a2.87,2.87,0,0,1,3.8-.5C167,154.69,167.66,157.51,168,160.51Z" transform="translate(0 -25.53)"/></g></g></svg>