<?xml version="1.0" encoding="utf-8"?>
<!-- Generator: Adobe Illustrator 22.0.0, SVG Export Plug-In . SVG Version: 6.00 Build 0)  -->
<svg version="1.1" id="Calque_1" xmlns="http://www.w3.org/2000/svg" xmlns:xlink="http://www.w3.org/1999/xlink" x="0px" y="0px"
	 viewBox="0 0 1811.4 595.5" style="enable-background:new 0 0 1811.4 595.5;" xml:space="preserve">
<style type="text/css">
	.st0{enable-background:new    ;}
	.st1{fill:#505763;}
	.st2{fill:#EC5252;}
</style>
<g class="st0">
	<path class="st1" d="M117.1,581.2c-1.9,0-2.9-1-2.9-2.9l1.2-395.9c0-1.5,0.8-2.3,2.3-2.3h184.4c1.9,0,2.9,0.8,2.9,2.3v65.1
		c0,1.5-0.8,2.3-2.3,2.3H184.6v89.3h118.1c1.5,0,2.3,1,2.3,2.9l0.6,65.1c0,1.5-1,2.3-2.9,2.3H184.6v168.8c0,1.9-1,2.9-2.9,2.9H117.1
		z"/>
	<path class="st1" d="M462.9,587c-20.4,0-39.2-5.3-56.5-15.8c-17.3-10.6-31-24.7-41.2-42.3c-10.2-17.7-15.3-37.1-15.3-58.2
		l1.2-288.1c0-1.5,0.8-2.3,2.3-2.3h64.5c1.5,0,2.3,0.8,2.3,2.3v288.1c0,13.1,4.1,24.1,12.4,33.1c8.3,9,18.3,13.5,30.3,13.5
		c12.3,0,22.6-4.5,30.8-13.5c8.3-9,12.4-20.1,12.4-33.1V182.5c0-1.5,0.8-2.3,2.3-2.3h64.5c1.5,0,2.3,0.8,2.3,2.3l1.2,288.1
		c0,21.5-5.1,41.1-15.3,58.8c-10.2,17.7-23.8,31.7-40.9,42.1C503.1,581.8,484,587,462.9,587z"/>
	<path class="st1" d="M627.1,581.2c-3.1,0-4.6-1.3-4.6-4l-0.6-392.4c0-3.1,1.5-4.6,4.6-4.6h51.9l97.4,227l-2.9-222.4
		c0-3.1,1.7-4.6,5.2-4.6h57c2.3,0,3.5,1.5,3.5,4.6l0.6,393c0,2.3-1,3.5-2.9,3.5h-50.7l-99.7-212l4,207.4c0,3.1-1.7,4.6-5.2,4.6
		H627.1z"/>
	<path class="st1" d="M995.3,587c-21.1,0-40.2-5.3-57.3-15.8c-17.1-10.6-30.6-24.7-40.6-42.3c-10-17.7-15-37.5-15-59.4l0.6-179.8
		c0-21.1,4.9-40.4,14.7-57.9c9.8-17.5,23.2-31.5,40.3-42.1c17.1-10.6,36.2-15.8,57.3-15.8c21.1,0,40.1,5.2,57,15.6
		c16.9,10.4,30.3,24.3,40.3,41.8c10,17.5,15,37,15,58.5v26.5c0,1.5-0.8,2.3-2.3,2.3h-64.5c-1.5,0-2.3-0.8-2.3-2.3v-26.5
		c0-12.7-4.1-23.6-12.4-32.8c-8.3-9.2-18.5-13.8-30.8-13.8c-13.8,0-24.4,4.7-31.7,14.1c-7.3,9.4-10.9,20.3-10.9,32.6v179.8
		c0,14.2,4.1,25.7,12.4,34.6c8.3,8.8,18.3,13.3,30.3,13.3c12.3,0,22.6-4.9,30.8-14.7c8.3-9.8,12.4-20.8,12.4-33.1V443
		c0-1.5,0.8-2.3,2.3-2.3h65.1c1.5,0,2.3,0.8,2.3,2.3v26.5c0,21.9-5.1,41.7-15.3,59.4c-10.2,17.7-23.7,31.8-40.6,42.3
		C1035.4,581.7,1016.4,587,995.3,587z"/>
	<path class="st1" d="M1152.6,581.2c-1.5,0-2.3-1-2.3-2.9l1.2-395.3c0-1.9,0.8-2.9,2.3-2.9h64.5c1.5,0,2.3,1,2.3,2.9v136.6
		l90.5-137.1c1.2-1.5,2.5-2.3,4-2.3h66.3c1.5,0,1.9,0.8,1.2,2.3l-99.7,159l111.8,237.4c0.8,1.5-0.2,2.3-2.9,2.3h-70.3
		c-1.9,0-3.1-0.8-3.5-2.3l-77.8-169.4l-20.2,31.7v137.1c0,1.9-0.8,2.9-2.3,2.9H1152.6z"/>
</g>
<g>
	<path class="st2" d="M1448.1,486.3c-1.8-0.7-3.4-2-4.3-3.8L1379.5,344c-0.9-1.8-0.9-3.6-0.2-5.4l12.1-35.2
		c2.9-8.3,10.3-13.7,18.9-14.1c95.6-3.6,319.9-11.2,339.6-4.5c23.6,8.1,42,26.5,50.7,50.5c8.5,23.6,6.1,49.4-6.7,70.7
		c-17.1,28.5-50.5,44.2-83.1,39.3c-18.6-2.9-35.7-11.9-48.5-25.6l-127.7,84c-7.9,5.2-18.4,4.3-25.6-2.2c-9.9-9-30.3-22.9-56.6-15
		C1451.1,486.7,1449.5,486.7,1448.1,486.3z M1393.8,340.4l60.6,130.4c30.3-6.3,53.2,9.4,64.4,20c2.2,2,5.4,2.2,7.6,0.7l132.9-87.3
		c3.1-2,7.4-1.3,9.7,1.6c11,13.7,26,22.4,43.5,25.1c26.9,4,54.3-8.8,68.5-32.3c10.8-18,12.8-38.6,5.6-58.4
		c-7.2-19.5-22.7-35-41.8-41.8c-11.9-4-146.4-1.8-334.5,5.2c-2.7,0-4.9,1.8-5.8,4.3L1393.8,340.4L1393.8,340.4z"/>
	<g>
		<path class="st2" d="M1444.8,266.7c-3.6-1.1-7-3.1-9.7-5.8c-5.2-4.9-8.1-11.4-8.3-18.6c-0.2-14.6,11.4-26.9,26-27.2l12.3-0.2
			c14.6-0.4,26.9,11.4,27.2,26c0.2,14.6-11.4,26.9-26,27.2l0,0l-12.3,0.2C1450.8,268.3,1447.9,267.9,1444.8,266.7z M1469.9,229.9
			c-1.3-0.4-2.7-0.7-4.3-0.7l-12.3,0.2c-6.7,0.2-11.9,5.8-11.9,12.3c0.2,6.7,5.8,11.9,12.3,11.9l12.3-0.2
			c6.7-0.2,11.9-5.8,11.9-12.3C1478,235.8,1474.6,231.5,1469.9,229.9z"/>
	</g>
	<g>
		<path class="st2" d="M1522.4,264.9c-3.6-1.1-7-3.1-9.7-5.8c-5.2-4.9-8.1-11.4-8.3-18.6c-0.2-7.2,2.5-13.9,7.4-19.1
			c4.9-5.2,11.4-8.1,18.6-8.3l12.3-0.2c7.2-0.2,13.9,2.5,19.1,7.4c5.2,4.9,8.1,11.4,8.3,18.6c0.4,14.6-11.4,26.9-26,27.2l-12.3,0.2
			C1528.5,266.5,1525.4,266.1,1522.4,264.9z M1547.4,228.1c-1.3-0.4-2.7-0.7-4.3-0.7l-12.3,0.2c-3.1,0-6.3,1.3-8.5,3.8
			c-2.2,2.2-3.4,5.4-3.4,8.8c0.2,6.7,5.8,12.1,12.3,11.9l12.3-0.2l0,0c3.1,0,6.3-1.3,8.5-3.8c2.2-2.2,3.4-5.4,3.4-8.8
			C1555.4,234,1552.1,229.7,1547.4,228.1z"/>
	</g>
	<g>
		<path class="st2" d="M1599.9,263.4c-3.6-1.1-7-3.1-9.7-5.8c-5.2-4.9-8.1-11.4-8.3-18.6c-0.2-7.2,2.5-13.9,7.4-19.1
			c4.9-5.2,11.4-8.1,18.6-8.3l12.3-0.2c7.2-0.2,13.9,2.5,19.1,7.4c5.2,4.9,8.1,11.4,8.3,18.6c0.2,7.2-2.5,13.9-7.4,19.1
			c-4.9,5.2-11.4,8.1-18.6,8.3l-12.3,0.2C1606.2,264.7,1603,264.3,1599.9,263.4z M1625,226.3c-1.3-0.4-2.7-0.7-4.3-0.7l-12.3,0.2
			c-3.1,0-6.3,1.3-8.5,3.8c-2.2,2.2-3.4,5.4-3.4,8.8c0,3.1,1.3,6.3,3.8,8.5c2.2,2.2,5.4,3.4,8.8,3.4l12.3-0.2l0,0
			c3.1,0,6.3-1.3,8.5-3.8c2.2-2.2,3.4-5.4,3.4-8.8c0-3.1-1.3-6.3-3.8-8.5C1628.2,227.7,1626.6,226.8,1625,226.3z"/>
	</g>
	<g>
		<path class="st2" d="M1677.6,261.6c-3.6-1.1-7-3.1-9.7-5.8c-5.2-4.9-8.1-11.4-8.3-18.6c-0.4-14.6,11.4-26.9,26-27.2l12.3-0.2
			c14.6-0.4,26.9,11.4,27.2,26c0.2,7.2-2.5,13.9-7.4,19.1c-4.9,5.2-11.4,8.1-18.6,8.3l0,0l-12.3,0.2
			C1683.6,262.9,1680.5,262.5,1677.6,261.6z M1702.5,224.5c-1.3-0.4-2.7-0.7-4.3-0.7l-12.3,0.2c-6.7,0.2-11.9,5.8-11.9,12.3
			c0,3.1,1.3,6.3,3.8,8.5c2.2,2.2,5.4,3.4,8.8,3.4l12.3-0.2c3.1,0,6.3-1.3,8.5-3.8c2.2-2.2,3.4-5.4,3.4-8.8c0-3.1-1.3-6.3-3.8-8.5
			C1705.6,225.9,1704.3,225,1702.5,224.5z"/>
	</g>
	<g>
		<path class="st2" d="M1304.3,383.5c-1.8-0.7-3.4-2-4.3-4c-1.6-3.6,0.2-7.9,3.8-9.7l79.7-34.1c3.6-1.6,7.9,0.2,9.7,3.8
			c1.6,3.6-0.2,7.9-3.8,9.7l-79.7,34.1C1307.8,383.9,1306,383.9,1304.3,383.5z"/>
		<path class="st2" d="M1325.6,428.8c-1.8-0.7-3.4-2-4.3-4c-1.6-3.6,0.2-7.9,3.8-9.7l79.7-34.1c3.6-1.6,7.9,0.2,9.7,3.8
			c1.6,3.6-0.2,7.9-3.8,9.7l-79.7,34.1C1329.2,429.3,1327.4,429.3,1325.6,428.8z"/>
		<path class="st2" d="M1346.9,474.2c-1.8-0.7-3.4-2-4.3-4c-1.6-3.6,0.2-7.9,3.8-9.7l79.7-34.1c3.6-1.6,7.9,0.2,9.7,3.8
			c1.6,3.6-0.2,7.9-3.8,9.7l-79.7,34.1C1350.5,474.8,1348.7,474.8,1346.9,474.2z"/>
		<path class="st2" d="M1368.2,519.5c-1.8-0.7-3.4-2-4.3-4c-1.6-3.6,0.2-7.9,3.8-9.7l79.7-34.1c3.6-1.6,7.9,0.2,9.7,3.8
			c1.6,3.6-0.2,7.9-3.8,9.7l-79.7,34.1C1371.8,520.2,1370,520.2,1368.2,519.5z"/>
	</g>
</g>
<g>
	<path class="st2" d="M51.6,437.1c-4.5,11.2,0,23.3,9.9,27.4c9.9,3.8,21.6-2,25.8-13.2l66.4-181.6l113.6-128.4
		c5.8,0,12.8-3.1,18.2-9.2c8.5-9.2,10.3-21.3,4.3-27.2c-6.3-5.8-18.2-3.1-26.7,6.1c-5.6,6.1-8.3,13.2-7.6,19.3l-80.6,82.2
		l58.6-160.3c5.4-2.2,10.6-7.6,13.7-15c4.7-11.7,2-23.6-5.8-26.7c-7.9-3.1-18,3.8-22.7,15.5c-3.1,7.6-2.9,15.5-0.2,20.7l-92,215.1
		L10.3,379.9l15.3,34.8L94.3,337L51.6,437.1z"/>
</g>
</svg>
